<svg width="670" height="346" viewBox="0 0 670 346" fill="none" xmlns="http://www.w3.org/2000/svg">
<path d="M664.599 9.29723C662.395 7.67338 659.504 6.99933 654.41 6.71593C649.315 6.43252 639.132 10.3466 639.132 10.3466C639.132 10.3466 636.669 11.2045 629.962 14.3603C623.255 17.516 614.684 24.5859 614.684 24.5859C614.684 24.5859 605.773 32.2302 601.27 36.8184C596.774 41.4065 591.761 50.2994 591.761 50.2994L591.359 50.6364C590.087 47.9249 588.346 44.8916 585.652 41.4984C585.652 41.4984 584.21 40.158 583.36 38.5341C582.51 36.9103 583.108 36.8107 581.319 34.4209C581.319 34.4209 580.979 33.4634 582.761 33.563C584.543 33.6626 589.21 32.7051 589.21 32.7051C589.21 32.7051 594.985 31.5562 603.386 23.5289C611.793 15.5016 618.16 11.0053 618.16 11.0053L627.5 5.17634C627.5 5.17634 629.452 3.8359 629.03 2.78652C628.609 1.73715 598.509 4.66314 575.803 26.9374C575.564 27.1749 575.204 27.1595 574.979 26.9068C574.741 26.6387 574.422 26.4778 574.082 26.4549C571.476 26.2863 559.851 25.8574 553.471 31.1809C553.471 31.1809 549.396 18.3739 538.363 11.396C527.33 4.41803 520.874 2.79418 520.874 2.79418L521.466 4.80101C521.466 4.80101 528.255 10.5381 531.486 16.9416C534.71 23.345 537.091 29.7485 539.723 31.7553C542.356 33.7622 542.696 34.3366 544.73 34.5281C546.764 34.7196 550.587 34.1452 550.587 34.1452L550.335 35.769C550.335 35.769 548.213 36.8184 547.702 38.8252C547.702 38.8252 541.335 32.8966 534.717 29.6489C528.098 26.4012 514.426 24.4863 514.426 24.4863C514.426 24.4863 507.127 22.671 503.984 29.3579C503.984 29.3579 502.454 33.6626 505.515 37.4848C505.515 37.4848 509.773 43.9878 510.188 49.7172C510.188 49.7172 511.793 55.5462 511.793 62.9071C511.793 70.2681 513.82 74.9175 516.63 77.6137C516.63 77.6137 513.494 80.6929 515.616 89.1032C515.616 89.1032 516.378 96.6556 522.745 102.967C529.112 109.279 530.982 113.675 539.723 111.76C539.723 111.76 538.703 122.944 534.799 129.156C530.894 135.367 527.921 144.452 527.921 144.452C527.921 144.452 525.881 154.869 533.819 156.876C541.757 158.883 550.757 159.174 561.11 154.294C571.47 149.423 571.381 150.089 577.496 143.778C583.612 137.466 590.992 127.715 593.373 119.114C594.951 113.392 596.386 109.233 596.618 104.928C599.264 112.151 601.27 113.668 605.256 117.107C609.249 120.546 613.154 119.972 617.228 119.022C621.303 118.072 632.003 111.186 638.281 106.789C644.56 102.393 646.26 98.9535 650.083 93.1168C653.906 87.2802 653.988 83.6495 654.117 80.4248C654.246 77.1924 652.206 74.8639 652.206 74.8639C656.532 71.9992 658.654 66.2621 658.654 66.2621C658.654 66.2621 660.525 62.3403 660.355 55.845C660.185 49.3419 661.205 45.6193 661.287 42.5555C661.368 39.4916 663.069 32.8047 663.749 29.557C664.429 26.3093 666.892 21.6216 666.892 21.6216C666.892 21.6216 667.912 19.9978 668.422 16.459C668.932 12.9202 666.81 10.9134 664.599 9.28957V9.29723Z" fill="white" stroke="black" stroke-width="4" stroke-miterlimit="10"/>
<path d="M576.926 38.5238C576.926 38.5238 578.972 40.5318 577.949 43.7815C576.926 47.0311 568.332 50.7636 566.545 50.0968C564.758 49.43 563.394 47.9892 564.758 45.9811C566.122 43.9731 567.309 41.2906 570.89 39.1906C574.47 37.0906 576.933 38.5238 576.933 38.5238H576.926Z" fill="black"/>
<path d="M552.863 37.4891C552.072 36.7916 550.919 37.0906 550.462 38.0946C550.005 39.0986 549.643 40.5854 550.073 42.3942C550.748 45.2836 551.478 46.303 552.986 48.1271C554.493 49.9512 556.396 49.6599 556.396 49.6599C556.396 49.6599 556.914 49.0315 556.88 47.8282C556.88 47.8282 556.805 45.4063 555.7 41.7887C555.079 39.7577 553.831 38.3398 552.863 37.4891Z" fill="black"/>
<path d="M0 73.9775H28.6803C34.355 73.9775 38.5905 74.8756 41.3801 76.6622C44.1697 78.4489 46.6661 82.1907 48.8691 87.8594C51.0721 93.5375 52.9068 101.096 54.3733 110.534C55.8397 119.973 56.5763 130.562 56.5763 142.283C56.5763 154.996 55.6692 166.661 53.8617 177.268C52.0543 187.886 49.5989 195.846 46.4955 201.15C50.8675 205.968 54.23 214.171 56.5763 225.771C58.9225 237.37 60.1025 251.009 60.1025 266.677C60.1025 279.016 59.3454 291.018 57.8244 302.682C56.3103 314.347 54.2368 323.664 51.6109 330.633C48.985 337.602 45.7453 341.896 41.8985 343.496C39.484 344.487 33.6593 345.105 24.4243 345.348H0V73.9775ZM14.4868 119.14V181.89H23.981C29.6284 181.89 33.1341 181.581 34.5051 180.963C36.9809 179.85 38.9316 176.614 40.3502 171.244C41.7689 165.875 42.4783 158.812 42.4783 150.047C42.4783 141.282 41.8644 134.837 40.6435 129.589C39.4227 124.341 37.6016 121.17 35.1871 120.057C33.748 119.44 29.6216 119.131 22.8078 119.131H14.4868V119.14ZM14.4868 227.062V299.624H27.896C33.1137 299.624 36.4284 299.072 37.8335 297.958C39.9888 296.48 41.7416 292.87 43.0921 287.126C44.4426 281.392 45.1246 273.703 45.1246 264.077C45.1246 255.929 44.5994 249.026 43.5559 243.348C42.5124 237.67 41.005 233.535 39.0271 230.944C37.0559 228.353 32.7726 227.052 26.184 227.052H14.4868V227.062Z" fill="black"/>
<path d="M100.438 75.8528H114.845V190.489C118.06 189.263 120.231 186.144 121.363 181.121C122.496 176.099 124.253 162.136 126.62 139.233C129.605 110.082 132.61 91.9601 135.621 84.8488C138.606 77.7467 143.422 74.1911 150.076 74.1911C150.402 74.1911 151.101 74.1261 152.172 74.0054V114.241L150.131 114.055C147.18 114.055 145.023 115.429 143.659 118.187C142.296 120.944 141.19 125.14 140.349 130.775C139.508 136.411 138.253 147.988 136.605 165.497C135.73 174.808 134.78 182.579 133.756 188.827C132.732 195.075 130.928 200.951 128.33 206.466C131.545 209.892 134.197 216.817 136.286 227.224C138.382 237.631 140.675 252.327 143.171 271.313L152.905 345.165H135.967L127.448 275.537C127.319 274.553 127.041 272.659 126.62 269.846C126.458 268.862 125.861 264.638 124.823 257.174C122.971 243.944 121.458 235.682 120.271 232.367C119.084 229.062 117.28 227.345 114.845 227.224V345.165H100.438V75.8528Z" fill="black"/>
<path d="M239.305 345.348V73.9775H262.549C271.361 73.9775 277.097 75.3339 279.778 78.0467C283.891 82.1158 287.328 90.9744 290.104 104.613C292.873 118.252 294.265 135.866 294.265 157.465C294.265 174.125 293.467 188.129 291.864 199.485C290.268 210.841 288.235 219.756 285.773 226.229C283.311 232.712 280.808 236.996 278.264 239.091C274.806 241.683 269.799 242.983 263.238 242.983H253.792V345.348H239.305ZM253.792 119.879V196.885H261.717C267.426 196.885 271.245 195.472 273.169 192.628C275.092 189.794 276.599 185.351 277.697 179.298C278.789 173.255 279.334 166.221 279.334 158.195C279.334 148.326 278.57 140.178 277.036 133.761C275.501 127.344 273.564 123.331 271.211 121.732C269.479 120.497 266.007 119.879 260.789 119.879H253.792Z" fill="black"/>
<path d="M315.044 150.02L301.078 138.035C304.086 95.3456 312.637 74.0054 326.739 74.0054C335.081 74.0054 341.381 80.7753 345.633 94.3062C349.885 107.837 352.015 123.727 352.015 141.976C352.015 154.495 351.041 165.793 349.101 175.871C347.161 185.949 344.247 194.807 340.367 202.436C345.086 208.401 348.628 216.834 350.987 227.744C353.346 238.653 354.529 252.103 354.529 268.074C354.529 291.087 352.244 309.688 347.668 323.879C343.091 338.07 336.243 345.165 327.124 345.165C319.688 345.165 313.82 340.6 309.514 331.48C305.215 322.36 301.977 305.277 299.813 280.231L312.955 264.314C314.314 280.05 316.112 290.246 318.363 294.901C320.607 299.556 323.386 301.879 326.685 301.879C331.214 301.879 334.513 298.272 336.581 291.06C338.65 283.847 339.684 275.585 339.684 266.285C339.684 255.556 338.515 246.906 336.169 240.353C333.823 233.8 330.295 230.519 325.569 230.519H322.318V190.993H323.967C328.361 190.993 331.728 187.359 334.053 180.083C336.379 172.816 337.548 163.154 337.548 151.105C337.548 141.569 336.602 133.516 334.709 126.954C332.816 120.401 330.105 117.12 326.583 117.12C320.567 117.12 316.72 128.093 315.037 150.029L315.044 150.02Z" fill="black"/>
<path d="M368.021 74.0054H381.55V254.529L410.57 74.0054H424.985V345.165H411.455V168.156L382.483 345.165H368.021V74.0054Z" fill="black"/>
<path d="M439.976 345.156V74.0054H454.362V180.727H482.553V74.0054H496.94V345.165H482.553V226.601H454.362V345.165H439.976V345.156Z" fill="black"/>
<path d="M504.442 74.0054H520.799L537.7 213.052L552.128 74.0054H567.396L542.934 277.557C540.269 299.607 537.548 316.384 534.78 327.898C532.011 339.412 528.437 345.165 524.057 345.165C519.676 345.165 516.364 344.131 513.926 342.062V301.86C515.999 302.349 517.879 302.589 519.559 302.589C522.955 302.589 525.379 300.309 526.846 295.738C528.313 291.168 529.718 281.334 531.068 266.228L504.436 74.0054H504.442Z" fill="black"/>
<path d="M209.736 216.983L223.361 168.804L223.148 168.434L209.736 141.84V74.0054L192.63 107.928L175.525 74.0054V141.84L162.113 168.434L161.899 168.804L175.525 216.983V337.945L192.63 277.469L209.736 337.945V216.983ZM221.112 169.134L209.736 209.684V146.439L221.112 169.144V169.134ZM208.236 215.043L192.63 270.66L177.024 215.043L176.997 143.499L192.63 112.307L208.264 143.499L208.236 215.043ZM208.291 81.0538L208.271 138.92L193.738 110.107L208.298 81.0538H208.291ZM176.969 81.0538L191.53 110.107L176.997 138.92L176.976 81.0538H176.969ZM164.149 169.134L175.525 146.429V209.674L164.149 169.124V169.134ZM177.072 326.127L177.031 222.311L191.674 274.079L177.072 326.127ZM193.586 274.079L208.23 222.311L208.188 326.127L193.586 274.079Z" fill="black" stroke="black" stroke-width="3" stroke-miterlimit="10"/>
<path d="M585.45 81.6044C585.45 81.6044 585.88 71.4723 582.422 66.4292C578.964 61.3861 574.469 66.5288 574.469 66.5288C574.469 66.5288 563.059 78.4238 562.697 87.5902C562.697 87.5902 562.343 89.9355 563.175 90.2114C564.007 90.4873 565.637 89.2993 565.637 89.2993L570.323 83.896L580.26 74.584" fill="white"/>
<path d="M585.45 81.6044C585.45 81.6044 585.88 71.4723 582.422 66.4292C578.964 61.3861 574.469 66.5288 574.469 66.5288C574.469 66.5288 563.059 78.4238 562.697 87.5902C562.697 87.5902 562.343 89.9355 563.175 90.2114C564.007 90.4873 565.637 89.2993 565.637 89.2993L570.323 83.896L580.26 74.584" stroke="black" stroke-width="2" stroke-miterlimit="10"/>
<path d="M584.639 98.3739C584.639 98.3739 585.375 90.679 583.513 88.3337C581.658 85.9885 579.926 82.3786 573.242 87.3451C567.656 91.4991 562.097 96.6341 560.426 98.2053C559.873 98.7265 559.696 99.6002 560.01 100.328C560.119 100.581 560.276 100.849 560.501 101.133C561.592 102.49 567.362 99.6845 567.362 99.6845L576.795 94.741" fill="white"/>
<path d="M584.639 98.3739C584.639 98.3739 585.375 90.679 583.513 88.3337C581.658 85.9885 579.926 82.3786 573.242 87.3451C567.656 91.4991 562.097 96.6341 560.426 98.2053C559.873 98.7265 559.696 99.6002 560.01 100.328C560.119 100.581 560.276 100.849 560.501 101.133C561.592 102.49 567.362 99.6845 567.362 99.6845L576.795 94.741" stroke="black" stroke-width="2" stroke-miterlimit="10"/>
<path d="M585.329 107.272C585.329 107.272 583.255 100.834 580.036 99.3703C576.817 97.9064 573.093 100.811 573.093 100.811C573.093 100.811 569.137 103.402 566.313 104.574C563.489 105.739 560.918 106.935 560.918 106.935L559.199 108.138C559.199 108.138 557.351 108.897 558.422 110.537C559.492 112.177 560.175 113.296 563.612 113.051C567.05 112.806 574.313 109.38 574.313 109.38L575.343 109.288" fill="white"/>
<path d="M585.329 107.272C585.329 107.272 583.255 100.834 580.036 99.3703C576.817 97.9064 573.093 100.811 573.093 100.811C573.093 100.811 569.137 103.402 566.313 104.574C563.489 105.739 560.918 106.935 560.918 106.935L559.199 108.138C559.199 108.138 557.351 108.897 558.422 110.537C559.492 112.177 560.175 113.296 563.612 113.051C567.05 112.806 574.313 109.38 574.313 109.38L575.343 109.288" stroke="black" stroke-width="2" stroke-miterlimit="10"/>
<path d="M547.003 101.171C547.003 101.171 548.872 103.562 548.599 106.03C548.326 108.498 547.351 109.479 547.351 109.479C547.351 109.479 543.798 109.809 542.413 104.865C541.028 99.9218 542.44 98.2356 542.44 98.2356C542.44 98.2356 543.081 96.5725 544.425 96.8944L547.003 101.179V101.171Z" fill="white" stroke="black" stroke-width="2" stroke-miterlimit="10"/>
<path d="M544.835 82.6239C544.835 82.6239 542.987 82.256 542.311 86.6017C541.636 90.9473 541.854 92.6028 544.432 96.8871L547.011 101.171C547.011 101.171 550.994 99.3933 549.486 94.5188C547.979 89.6444 544.842 82.6239 544.842 82.6239H544.835Z" fill="white" stroke="black" stroke-width="2" stroke-miterlimit="10"/>
<path d="M551.696 65.5248C551.696 65.5248 548.797 64.2832 546.11 72.6679C543.416 81.0449 545.551 84.2639 545.551 84.2639L548.163 90.7248C548.163 90.7248 550.557 90.7325 550.7 85.3829C550.843 80.0332 550.407 72.4073 551.703 65.5248H551.696Z" fill="white" stroke="black" stroke-width="2" stroke-miterlimit="10"/>
</svg>
