<svg width="375" height="400" viewBox="0 0 375 400"

 preserveAspectRatio="none"
  fill="none" xmlns="http://www.w3.org/2000/svg">
<g clip-path="url(#clip0_329_40)">
<path d="M0 0.0612183H8.21929V174.805H19.9239L34.7845 18.4585C34.7845 18.4585 37.2544 -0.122153 38.4756 0.122328C39.6968 0.36681 46.146 0.122328 46.146 0.122328V45.7182L40.5339 45.2903C40.5339 45.2903 29.3781 193.018 24.3148 193.018V201.698L26.181 204.326C26.181 204.326 29.3095 197.908 42.5235 352.543H48.3415V399.606H40.6025C40.6025 399.606 37.9953 414.275 19.9239 219.056H7.94486V399.85H0V0.0612183Z" fill="black"/>
<path d="M85.0607 0.0611335H75.2771L53.3499 399.728H61.3222L68.0321 281.765L92.3332 280.604L98.4942 399.667H106.988L85.0607 0V0.0611335ZM69.1161 236.047L80.162 47.185L90.8787 236.047H69.1161Z" fill="black"/>
<path d="M124.62 47.1851H104.861V0.0612183H152.928V47.1851H132.785L132.977 399.728H124.442L124.62 47.1851Z" fill="black"/>
<path d="M182.293 0.0611335H172.509L150.582 399.728H158.554L165.264 281.765L189.565 280.604L195.726 399.667H204.22L182.293 0V0.0611335ZM166.348 236.047L177.394 47.185L188.111 236.047H166.348Z" fill="black"/>
<path d="M207.499 399.728V352.482H214.525C214.525 352.482 222.099 340.197 222.195 125.603V0.0612183H260.465V399.728H251.944L251.848 47.1851H230.085L230.126 196.136C230.126 196.136 230.332 400.523 212.439 399.789H207.499V399.728Z" fill="black"/>
<path d="M300.13 0.110901C281.76 0.110901 273.438 89.6127 273.438 200.055C273.438 310.498 281.582 400 300.13 400C318.678 400 326.823 310.498 326.823 200.055C326.823 89.6127 319.226 0.110901 300.13 0.110901ZM300.13 355.634C287.496 355.634 281.938 285.475 281.938 198.872C281.938 112.269 287.605 42.1111 300.13 42.1111C312.655 42.1111 318.322 112.269 318.322 198.872C318.322 285.475 313.148 355.634 300.13 355.634Z" fill="black"/>
<path d="M339.625 399.728H348.202V47.3073H375V0.0612183H339.625V399.728Z" fill="black"/>
<path d="M311.342 50.5944V126.418L319.617 156.081L319.748 156.498L319.783 156.609L319.765 156.725L311.336 210.622V345.878L310.343 345.955L300.258 281.459L290.173 345.955L289.179 345.878V210.578L280.756 156.725L280.738 156.609L280.772 156.498L280.899 156.095L289.179 126.418V50.5944L290.161 50.4597L300.263 86.6657L310.36 50.4597L311.342 50.5944ZM291.138 326.174L299.162 274.418L291.113 222.951L291.138 326.174ZM301.358 274.418L309.383 326.174L309.407 222.945L301.358 274.418ZM291.09 128.411L291.105 208.347L300.258 267.349L309.409 208.347L309.424 128.408L300.257 95.32L291.09 128.411ZM283.157 157.049L289.179 195.887V135.296L283.157 157.049ZM311.342 195.887L317.363 157.047L311.342 135.292V195.887ZM291.089 119.586L299.062 90.987L291.074 62.1452L291.089 119.586ZM301.453 90.9636L309.425 119.56L309.44 62.1227L301.453 90.9636Z" fill="black" stroke="black"/>
<rect y="394" width="375" height="6" fill="black"/>
</g>
<defs>
<clipPath id="clip0_329_40">
<rect width="375" height="400" fill="white"/>
</clipPath>
</defs>
</svg>
