<svg width="184" height="322" viewBox="0 0 184 322" fill="none" xmlns="http://www.w3.org/2000/svg">
<g clip-path="url(#clip0_329_9)">
<path d="M146.093 180.784L184 124.538L183.407 124.107L146.093 93.0575V13.8645L98.5074 53.4618L50.922 13.8645V93.0575L13.6083 124.107L13.0149 124.538L50.922 180.784V322L98.5074 251.392L146.093 322V180.784ZM177.735 124.926L146.093 172.263V98.4242L177.735 124.926ZM141.913 178.514L98.5074 243.448L55.1018 178.514L55.0236 94.9886L98.5074 58.5691L141.991 94.9886L141.913 178.514ZM142.06 22.0924L141.997 89.6506L101.568 56.0079L142.062 22.0924H142.06ZM54.9546 22.0924L95.4484 56.0079L55.019 89.6506L54.9562 22.0924H54.9546ZM19.2801 124.926L50.922 98.4242V172.263L19.2801 124.926ZM55.223 308.199L55.1095 186.998L95.841 247.437L55.223 308.199ZM101.174 247.437L141.905 186.998L141.792 308.199L101.174 247.437Z" fill="black"/>
<path d="M108.466 230.076C108.213 231.314 108.42 231.921 108.473 232.047C108.479 232.062 108.488 232.077 108.497 232.089C110.469 234.567 114.23 232.475 114.827 232.12C114.877 232.09 114.908 232.038 114.909 231.979L114.969 229.852C114.969 229.844 114.969 229.835 114.972 229.828C115.644 225.774 116.389 225.35 116.705 225.377C116.794 225.385 116.86 225.462 116.86 225.549V230.599C116.86 230.67 116.904 230.735 116.972 230.761C117.222 230.859 117.441 230.809 117.567 230.761C117.634 230.735 117.679 230.673 117.679 230.602L117.74 225.497C117.74 225.459 117.754 225.423 117.777 225.394C119.562 223.158 118.749 221.084 118.585 220.722C118.568 220.686 118.54 220.659 118.505 220.642C116.65 219.748 115.664 217.287 115.547 216.981C115.54 216.96 115.537 216.937 115.537 216.914C115.958 208.864 115.33 206.281 115.285 206.112C115.284 206.106 115.282 206.1 115.279 206.094C113.483 201.731 114.043 201.214 114.184 201.152C114.209 201.142 114.229 201.123 114.246 201.102C116.742 197.944 122.953 193.476 124.933 192.089C125.082 191.985 125.272 192.148 125.189 192.308C124.876 192.914 124.372 193.987 123.723 195.69C122.59 198.666 120.259 201.64 121.455 205.111C122.651 208.581 137.391 220.419 137.643 223.953C137.871 227.152 137.014 229.487 136.85 229.9C136.833 229.942 136.801 229.974 136.759 229.992C136.353 230.164 134.148 231.098 133.863 231.266C133.549 231.451 133.233 232.63 133.486 233.746C133.737 234.861 134.998 235.172 137.831 235.172C140.666 235.172 140.729 233.871 140.729 233.871C141.548 230.09 143.249 227.61 143.69 227.548C144.046 227.498 144.196 227.729 144.241 227.821C144.251 227.844 144.256 227.866 144.257 227.892L144.323 233.491C144.323 233.542 144.348 233.59 144.386 233.622C144.546 233.753 144.713 233.684 144.808 233.622C144.857 233.59 144.886 233.536 144.886 233.477V227.857C144.886 227.176 145.391 227.052 145.768 226.184C146.145 225.316 146.019 224.82 146.019 224.82C145.901 222.448 143.646 221.805 143.344 221.729C143.321 221.723 143.299 221.713 143.281 221.699C139.892 219.076 137.716 214.685 137.643 214.536C137.641 214.533 137.641 214.531 137.64 214.528C137.566 214.349 135.071 208.305 131.721 206.351C128.32 204.368 129.076 203.314 129.076 203.314L137.574 190.491C137.574 190.491 137.581 190.481 137.584 190.476C143.121 183.909 143.12 179.076 139.467 173.315C135.951 167.767 137.511 165.09 137.633 164.897C137.64 164.888 137.643 164.882 137.646 164.871C137.765 164.558 139.826 159.073 141.294 149.266C142.805 139.163 140.726 129.123 140.726 127.262C140.726 125.404 139.277 116.478 137.986 114.275C136.802 112.255 137.127 111.101 137.19 110.924C137.195 110.909 137.203 110.896 137.213 110.882C139.089 108.349 138.964 106.373 139.027 105.197C139.084 104.148 139.59 103.147 139.699 102.942C139.713 102.916 139.72 102.886 139.719 102.858C139.711 102.336 139.562 101.997 139.44 101.804C139.368 101.689 139.194 101.697 139.135 101.819C138.774 102.55 138.222 104.754 138.086 105.315C138.067 105.392 137.997 105.446 137.916 105.446H136.437C136.335 105.446 136.253 105.36 136.263 105.259C136.286 105.033 136.344 104.59 136.442 102.347C136.551 99.8427 135.915 100.269 135.734 100.438C135.703 100.467 135.685 100.507 135.682 100.548C135.384 104.564 135.126 105.096 135.031 105.143C134.999 105.158 134.969 105.173 134.95 105.203C134.021 106.783 133.756 110.377 133.734 110.691C133.734 110.706 133.734 110.719 133.737 110.734C136.79 126.148 136.566 129.798 136.324 130.657C136.287 130.79 136.117 130.831 136.025 130.728C135.418 130.051 133.196 127.823 130.52 128.193C127.575 128.598 125.071 129.926 124.758 130.096C124.735 130.109 124.712 130.115 124.688 130.116C124.33 130.134 121.607 130.247 121.136 129.493C120.632 128.688 120.066 128.75 120.066 128.75C117.242 128.979 116.437 129.347 116.237 129.598C116.151 129.706 116.237 129.864 116.375 129.869C118.993 129.946 118.649 130.69 118.482 130.917C118.453 130.957 118.407 130.983 118.356 130.989L116.542 131.167C116.542 131.167 116.535 131.167 116.532 131.167C111.182 132.005 112.824 132.032 112.941 132.034C112.945 132.034 112.95 132.034 112.954 132.034C116.852 132.406 116.789 132.777 117.86 132.962C118.826 133.13 118.254 133.499 118.133 133.57C118.119 133.577 118.105 133.583 118.09 133.588C117.85 133.651 115.69 134.233 115.213 134.759C114.808 135.208 114.564 135.135 114.486 135.089C114.463 135.076 114.439 135.067 114.413 135.065C114.104 135.041 112.344 134.916 112.631 135.255C112.918 135.594 114.825 136.659 115.063 136.791C115.08 136.8 115.095 136.806 115.115 136.809C115.368 136.853 117.289 137.197 116.348 137.486C115.466 137.758 114.683 138.549 114.499 138.743C114.471 138.772 114.437 138.79 114.397 138.795C113.982 138.849 111.588 139.17 111.877 139.283C112.191 139.407 113.263 139.469 114.207 139.407C115.152 139.345 115.215 138.787 115.908 138.229C116.306 137.908 116.516 137.957 116.624 138.056C116.702 138.128 116.693 138.252 116.607 138.315C116.228 138.596 115.097 139.488 115.466 139.903C115.908 140.399 115.843 140.956 115.843 140.956C115.722 141.909 113.681 142.863 113.522 142.936C113.514 142.939 113.508 142.942 113.5 142.943C111.122 143.623 112.064 143.87 112.064 143.87C114.189 144.039 115.948 141.942 116.24 141.572C116.268 141.535 116.279 141.492 116.273 141.446C116.138 140.375 117.165 139.781 117.165 139.781C118.488 138.976 118.172 139.842 118.172 139.842C117.039 139.904 118.298 145.297 118.424 145.607L118.427 145.616C118.507 145.808 118.798 145.72 118.758 145.517C118.146 142.429 118.349 141.68 118.409 141.543C118.416 141.526 118.425 141.513 118.438 141.499C118.553 141.377 119.292 140.598 119.871 140.028C120.39 139.517 120.61 140.142 120.672 140.378C120.686 140.429 120.672 140.483 120.64 140.524C118.861 142.787 120.402 144.981 120.656 145.313C120.679 145.343 120.69 145.378 120.69 145.416V148.393C120.69 148.432 120.678 148.47 120.652 148.5C120.518 148.661 120.065 149.258 119.746 150.253C119.399 151.333 119.476 152.725 119.491 152.95C119.491 152.971 119.491 152.991 119.483 153.01C119.324 153.484 117.312 159.441 116.366 162.773C115.38 166.243 116.596 168.042 116.596 168.042L123.009 178.763C123.051 178.835 123.035 178.929 122.969 178.981C114.269 186.115 109.814 193.232 108.088 196.449C107.502 197.539 107.249 198.772 107.352 200C107.934 206.927 108.577 209.513 110.674 215.704C112.942 222.397 111.935 221.716 112.123 224.877C112.297 227.785 109.06 229.672 108.54 229.956C108.496 229.98 108.463 230.024 108.454 230.072L108.466 230.076ZM123.915 164.565C123.915 164.565 123.915 164.577 123.915 164.582L122.907 172.259C122.907 172.259 122.844 174.551 120.075 165.759C120.074 165.753 120.072 165.749 120.071 165.744C120.032 165.571 119.465 162.664 122.478 157.572C122.582 157.394 122.855 157.442 122.89 157.644C123.093 158.796 124.056 160.867 123.915 164.565Z" fill="black"/>
<path d="M128.458 237.204C128.441 237.182 127.79 236.358 128.423 234.507C128.423 234.507 128.581 234.076 129.961 233.697L129.827 233.497C129.827 233.497 130.01 232.57 130.461 231.97C130.913 231.368 131.391 231.169 131.391 231.168C131.391 231.168 131.414 230.896 131.335 230.748C131.255 230.601 131.618 230.2 131.747 230.227C131.876 230.254 132.256 230.1 132.466 230.165L132.518 230.022C132.515 230.022 132.196 229.956 132.232 229.787C132.267 229.619 132.508 229.732 132.512 229.734C132.512 229.731 132.537 229.518 132.767 229.588L132.932 229.224C132.928 229.22 132.391 228.659 132.541 228.053C132.541 228.053 132.797 227.687 133.386 227.764L133.699 226.704C133.699 226.704 133.038 225.489 133.224 224.712C133.224 224.712 133.224 224.711 133.224 224.709C133.208 224.696 133.058 224.501 133.596 222.207C133.596 222.207 133.359 221.74 133.839 221.429C134.318 221.12 134.53 221.494 134.53 221.494C134.53 221.494 134.748 221.627 134.852 221.085C134.955 220.544 135.435 220.764 135.435 220.764C135.435 220.764 135.527 221.015 135.978 220.633C135.978 220.633 136.185 220.555 136.318 220.615C136.451 220.675 136.813 220.496 136.813 220.496C136.813 220.496 137.348 220.353 137.502 220.945C137.657 221.539 137.653 221.34 137.727 221.312C137.801 221.283 138.271 221.07 138.761 221.192C138.761 221.192 139.286 221.036 139.656 221.088C140.026 221.143 140.256 220.847 140.326 220.674C140.397 220.501 140.512 220.116 140.579 219.634C140.647 219.151 140.783 218.881 140.783 218.881C140.783 218.881 141.085 218.833 141.218 218.673C141.353 218.514 142.73 220.053 142.776 220.369L142.988 220.324L143.384 220.464L143.566 220.606L143.586 220.635C143.604 220.663 143.63 220.686 143.661 220.703L143.871 220.813C143.871 220.813 144.239 221.031 144.417 221.354C144.573 221.637 144.423 222.154 144.906 222.377C145.084 222.46 145.243 222.579 145.365 222.732C145.567 222.986 145.872 223.333 146.079 223.402C146.413 223.516 146.86 223.793 147.251 224.854C147.251 224.854 147.401 224.994 147.827 224.829C147.827 224.829 147.999 224.809 148.195 225.157C148.2 225.157 148.608 225.112 148.416 225.599C148.417 225.599 149.111 226.11 149.325 226.586C149.325 226.586 149.781 226.672 150.412 227.231C150.412 227.231 150.75 227.598 150.797 228.005L151.542 228.9C151.542 228.9 152.274 229.389 151.349 230.477C151.349 230.477 150.952 230.806 150.745 230.868C150.538 230.928 150.549 231.026 150.549 231.026C150.549 231.026 150.84 231.061 148.678 232.565C148.677 232.563 148.575 232.467 148.516 232.542C148.516 232.542 148.456 232.563 148.411 232.775L146.686 233.943C146.686 233.943 146.015 234.522 145.495 233.908C145.493 233.908 144.603 234.466 143.089 235.698C143.089 235.698 142.804 235.827 142.614 235.875C142.424 235.925 142.086 236.361 142.085 236.362C142.085 236.362 142.454 236.836 141.958 237.175C141.461 237.514 140.223 238.33 139.608 238.435C139.612 238.441 139.788 238.714 137.873 239.337C137.873 239.337 136.928 239.727 136.761 239.505C136.761 239.505 136.571 239.555 136.686 239.7C136.801 239.845 134.213 240.494 134.211 240.494L133.747 240.466L133.667 240.681C133.659 240.683 131.782 241.221 131.31 241.07C131.31 241.07 129.524 241.785 128.979 240.913C128.435 240.042 128.133 239.616 128.621 238.845C128.618 238.842 127.426 237.828 128.452 237.202L128.458 237.204Z" fill="black"/>
<path d="M101.661 232.96C101.651 232.937 101.238 232.039 102.238 230.48C102.238 230.48 102.48 230.12 103.83 230.073L103.753 229.861C103.753 229.861 104.129 229.051 104.678 228.599C105.226 228.147 105.711 228.068 105.711 228.067C105.711 228.067 105.794 227.824 105.754 227.67C105.714 227.516 106.137 227.23 106.249 227.281C106.361 227.333 106.744 227.275 106.922 227.381L107.004 227.262C107.001 227.262 106.723 227.131 106.794 226.984C106.864 226.838 107.059 226.995 107.062 226.996C107.062 226.993 107.134 226.805 107.329 226.918L107.563 226.623C107.56 226.618 107.194 225.986 107.468 225.463C107.468 225.463 107.786 225.183 108.308 225.382L108.834 224.479C108.834 224.479 108.503 223.22 108.848 222.549C108.848 222.549 108.848 222.548 108.848 222.546C108.837 222.531 108.744 222.32 109.754 220.333C109.754 220.333 109.642 219.852 110.152 219.674C110.661 219.495 110.771 219.884 110.771 219.884C110.771 219.884 110.941 220.053 111.157 219.58C111.374 219.106 111.765 219.412 111.765 219.412C111.765 219.412 111.794 219.662 112.292 219.411C112.292 219.411 112.499 219.384 112.608 219.468C112.717 219.552 113.088 219.468 113.089 219.468C113.089 219.468 113.612 219.453 113.62 220.03C113.628 220.608 113.671 220.425 113.744 220.415C113.818 220.404 114.298 220.312 114.718 220.531C114.718 220.531 115.236 220.502 115.563 220.632C115.889 220.761 116.167 220.541 116.27 220.398C116.372 220.255 116.565 219.928 116.736 219.501C116.906 219.074 117.091 218.856 117.091 218.856C117.091 218.856 117.378 218.877 117.538 218.759C117.697 218.642 118.612 220.353 118.582 220.654L118.786 220.659L119.115 220.874C119.161 220.933 119.204 220.986 119.25 221.045L119.261 221.075C119.272 221.105 119.29 221.132 119.315 221.153L119.482 221.3C119.482 221.3 119.77 221.58 119.861 221.916C119.94 222.209 119.686 222.65 120.078 222.961C120.224 223.075 120.342 223.219 120.419 223.386C120.548 223.663 120.748 224.048 120.923 224.156C121.205 224.333 121.55 224.685 121.67 225.744C121.67 225.744 121.776 225.905 122.204 225.846C122.204 225.846 122.366 225.866 122.466 226.228C122.47 226.228 122.854 226.276 122.568 226.681C122.568 226.683 123.091 227.301 123.18 227.785C123.18 227.785 123.577 227.963 124.031 228.612C124.031 228.612 124.258 229.022 124.211 229.405L124.692 230.388C124.692 230.388 125.252 230.996 124.16 231.792C124.16 231.792 123.722 232.007 123.518 232.018C123.314 232.028 123.303 232.12 123.303 232.12C123.303 232.12 123.562 232.217 121.242 233.123C121.241 233.12 121.17 233.011 121.098 233.067C121.098 233.067 121.038 233.073 120.949 233.257L119.105 233.95C119.105 233.95 118.359 234.335 118.021 233.659C118.019 233.659 117.078 233.976 115.412 234.775C115.412 234.775 115.123 234.831 114.937 234.835C114.753 234.84 114.344 235.165 114.342 235.167C114.342 235.167 114.575 235.681 114.043 235.883C113.511 236.085 112.194 236.563 111.605 236.525C111.607 236.531 111.708 236.821 109.81 236.973C109.81 236.973 108.856 237.125 108.753 236.886C108.753 236.886 108.568 236.89 108.641 237.047C108.715 237.204 106.196 237.234 106.192 237.234L105.774 237.106L105.653 237.285C105.645 237.285 103.804 237.368 103.405 237.127C103.405 237.127 101.606 237.392 101.304 236.474C101.002 235.556 100.821 235.101 101.442 234.499C101.441 234.496 100.576 233.307 101.658 232.955L101.661 232.96Z" fill="black"/>
<path d="M75.8571 73.9952L41.7051 102.607L0 73.2007L31.7047 82.6451L13.9564 59.775L48.0255 72.3776L35.5779 27.2946L35.5043 27.0022L35.7865 27.1213L78.9329 46.4955L71.8351 11.368L91.8819 32.3176L87.5656 0L110.273 45.273L76.0671 73.8203L75.8571 73.9952Z" fill="black"/>
</g>
<defs>
<clipPath id="clip0_329_9">
<rect width="184" height="322" fill="white"/>
</clipPath>
</defs>
</svg>
