<svg width="375" height="244" preserveAspectRatio="none" viewBox="0 0 375 244" fill="none" xmlns="http://www.w3.org/2000/svg">
<g clip-path="url(#clip0_113_97)">
<path d="M0 0H39.0308V40.8298H11.6339V243.325H0V0Z" fill="black"/>
<path d="M115.462 0H155.83V243.328H144.196V41.1631H126.863V145.066C126.863 174.832 126.626 195.606 126.154 207.391C125.683 219.176 124.536 228.363 122.716 234.944C120.894 241.529 118.044 244.82 114.166 244.82C112.804 244.82 110.327 244.264 106.738 243.16V205.149L109.332 205.314C111.77 205.314 113.407 203.932 114.246 201.166C115.085 198.402 115.504 191.597 115.504 180.751L115.464 138.924V0H115.462Z" fill="black"/>
<path d="M167.818 243.328V0H210.545V41.1631H179.454V95.1077H208.383V136.106H179.454V202.33H211.645V243.328H167.818Z" fill="black"/>
<path d="M221.616 243.177V0H240.231C247.285 0 251.884 1.21915 254.025 3.65098C257.317 7.29873 260.073 15.2377 262.294 27.4551C264.514 39.6757 265.625 55.4632 265.625 74.8144C265.625 89.7449 264.985 102.295 263.704 112.469C262.424 122.646 260.797 130.633 258.825 136.438C256.852 142.243 254.847 146.088 252.809 147.967C250.039 150.288 246.03 151.449 240.778 151.449H233.214V243.18H221.615L221.616 243.177ZM233.216 41.1374V110.144H239.565C244.137 110.144 247.193 108.873 248.736 106.328C250.277 103.786 251.484 99.8053 252.361 94.3854C253.235 88.9688 253.674 82.6661 253.674 75.4741C253.674 66.6296 253.06 59.3308 251.833 53.5779C250.605 47.8282 249.051 44.2354 247.17 42.7963C245.785 41.6936 243.002 41.1374 238.822 41.1374H233.219H233.216Z" fill="black"/>
<path d="M90.5724 128.179L104.948 86.7833L104.722 86.465L90.5724 63.6139V5.33105L72.5261 34.4709L54.4799 5.33105V63.6139L40.3298 86.465L40.1042 86.7833L54.4799 128.179V232.108L72.5261 180.145L90.5724 232.108V128.179ZM102.573 87.067L90.5724 121.903V67.5606L102.573 87.0639V87.067ZM88.9867 126.505L72.5261 174.294L56.0656 126.505L56.0357 65.0356L72.5261 38.2316L89.0165 65.0356L88.9867 126.505ZM89.0431 11.3866L89.0182 61.1047L73.6855 36.3465L89.0414 11.3866H89.0431ZM56.0108 11.3866L71.3667 36.3465L56.034 61.1047L56.0092 11.3866H56.0108ZM42.4811 87.067L54.4815 67.5638V121.906L42.4811 87.0702V87.067ZM56.112 221.948L56.0689 132.75L71.516 177.229L56.112 221.948ZM73.5379 177.229L88.985 132.75L88.9419 221.948L73.5379 177.229Z" fill="black" stroke="black" stroke-width="3" stroke-miterlimit="10"/>
<path d="M251.927 243.18L251.727 242.365V227.589L255.574 228.326V243.177H258.596L258.568 228.936C258.568 228.936 260.464 227.716 262.295 228.936V243.177H265.55V228.394L269.042 228.936V243.177H272.113V228.849L275.668 228.936V243.177H278.513V228.849H282.043V243.177H285.18V228.849L284.738 227.589L284.853 191.258L285.18 190.028H293.544C293.544 190.028 294.885 188.895 295.323 192.946L294.951 220.187C294.951 220.187 294.372 223.237 294.372 226.291C294.372 229.345 294.906 230.562 294.906 230.562L294.63 243.177H297.71V228.849L301.319 229.955L301.061 243.18H304.329V228.852H307.859V243.18H311.152V228.852H314.479V243.18H317.524L317.292 228.852L321.595 228.398L321.406 243.18H324.78L325.015 228.852H330.531L330.299 243.18H333.791L334.069 229.361L334.483 228.849V243.177H337.487L337.872 233.207L338.038 243.177H341.02V233.691L341.933 234.427L341.592 243.177H374.959V208.484L330.812 147.56C330.812 147.56 317.674 156.715 291.916 159.97C266.159 163.225 255.151 160.986 255.151 160.986L255.043 164.445L247.027 169.53L246.919 175.836L233.132 184.55V243.174H251.928L251.927 243.18ZM358.176 227.31L355.611 226.496L356.041 201.877L357.738 202.282L358.558 204.148L358.176 227.31ZM364.296 229.361H362.879V207.154L364.296 208.413V229.361ZM364.296 201.27V204.278L363.949 204.525L363.841 201.27H364.296ZM362.345 199.031L362.879 199.514V203.305C362.879 203.305 362.452 203.305 362.239 201.88L362.347 199.031H362.345ZM360.799 197.82L361.489 198.42L361.382 202.286L360.313 201.27C360.313 201.27 360.965 201.085 360.799 197.82ZM358.772 194.867L359.778 196.181L359.671 200.452L358.388 199.232C358.388 199.232 358.833 198.635 358.77 194.864L358.772 194.867ZM357.215 193.539L357.739 194.867V197.82L356.644 197.2C356.644 197.2 357.43 196.996 357.216 193.539H357.215ZM354.756 192.589C354.756 192.589 355.077 192.316 355.077 190.69L356.041 192.18V196.833L354.756 195.977V192.585V192.589ZM352.938 189.496L354.008 190.08V194.867L352.938 193.741C352.938 193.741 353.473 193.536 353.473 191.706C353.473 189.875 352.938 189.493 352.938 189.493V189.496ZM350.694 186.403L351.55 187.435L351.658 192.316C351.658 192.316 351.444 192.926 351.176 192.316C350.908 191.706 350.694 190.69 350.694 190.69V186.403ZM347.808 185.141C347.808 185.141 348.167 185.215 348.2 184.19L349.131 185.4V190.064C349.131 190.064 349.134 190.453 348.738 190.064C348.341 189.674 347.808 189.064 347.808 189.064V185.144V185.141ZM349.132 195.681L348.47 224.244L347.06 223.854C347.06 223.854 346.478 223.448 346.395 220.193C346.312 216.938 346.746 193.543 346.746 193.543L349.132 195.685V195.681ZM346.741 182.554C346.741 182.554 346.633 187.639 346.741 187.844C346.848 188.048 345.672 186.624 345.672 186.624L345.564 180.519L346.739 182.554H346.741ZM342.786 177.582L343.855 179.5L343.962 185.4L342.787 184.18V177.582H342.786ZM339.151 174.746L340.648 176.245V182.109L339.151 180.519V174.746ZM335.304 171.974C335.304 171.974 336.373 170.958 337.121 172.789V178.251L335.198 175.839L335.306 171.974H335.304ZM334.976 186.403C335.824 184.556 335.39 182.109 335.39 182.109L338.082 184.586L336.586 220.187C336.159 218.967 334.673 218.762 334.673 218.762L334.976 186.4V186.403ZM301.734 220.554L300.248 220.596L299.528 220.132V218.347L300.079 216.903L300.141 214.287L300.189 211.587L300.134 209.461L299.527 208.582L300.023 207.965L300.078 207.257L299.527 206.378L299.307 207.257H298.921L298.866 207.965L298.966 208.997L298.645 208.591L298.431 210.831L298.539 212.456L298.966 213.067L299.528 214.462L299.252 216.117L299.179 218.152L298.858 218.967L298.534 219.502L298.479 220.187L298.218 221.203L297.321 221.18V193.458C297.321 193.458 297.82 188.104 299.141 188.581C300.462 189.058 301.403 188.282 301.734 192.942V220.55V220.554ZM307.583 220.19L304.053 219.505L304.524 189.674C306.128 188.25 307.583 188.11 307.583 188.11V220.19ZM307.816 183.304C307.816 183.304 305.805 184.462 304.63 183.304V177.67L307.816 176.69V183.304ZM314.477 219.505H311.151V188.11L314.477 187.48V219.505ZM314.677 181.129L311.151 181.889V176.258L314.677 174.999V181.133V181.129ZM321.373 218.765H317.563L317.898 185.799C318.553 187.01 321.373 185.799 321.373 185.799V218.765ZM321.624 179.705L318.098 180.156V173.808L321.624 173.227V179.708V179.705ZM323.869 157.734L325.365 157.328V159.769C325.365 159.769 324.83 160.989 323.869 160.174V157.734ZM322.694 158.139V161.284L321.138 160.784L321.09 158.545L322.694 158.139ZM316.615 160.281L317.99 159.765L318.098 162.066C318.098 162.066 317.684 162.783 317.356 162.8C317.029 162.816 316.615 162.066 316.615 162.066V160.281ZM314.105 161.122L315.746 160.784L316.173 161.394L315.788 163.011L314.105 163.351V161.122ZM309.761 162.488L310.401 161.803H311.29V164.903L309.759 164.649V162.488H309.761ZM307.293 163.014H309.224V165.178H307.293V163.014ZM302.921 163.634L304.63 163.432L304.783 166.321L304.231 166.921L303.293 166.749L302.908 166.324L302.921 163.637V163.634ZM300.591 164.273L302.067 164.039V166.918L301.736 167.265L300.591 167.7V164.27V164.273ZM298.259 177.712C300.544 175.924 301.734 177.712 301.734 177.712V184.248C300.334 185.335 297.683 184.878 297.683 184.878C297.683 184.878 297.575 184.18 297.683 181.126C297.791 178.075 298.259 177.709 298.259 177.709V177.712ZM296.26 164.903H297.969V167.7C297.969 167.7 297.448 168.434 297.031 168.576C296.614 168.719 296.258 167.7 296.258 167.7V164.903H296.26ZM293.943 165.26H295.57V168.576H293.943V165.26ZM289.668 166.11L291.485 166.074L291.351 169.329L289.668 168.924V166.11ZM287.53 166.321H288.924V169.329H287.53V166.321ZM285.179 178.89L295.322 177.475V184.972L285.179 186.374V178.89ZM282.317 220.19L282.041 221.183L280.606 220.657V218.136L280.826 216.903L281.437 214.897L281.223 212.658L281.214 211.583L280.606 210.678V208.893L280.275 207.251L279.779 207.958L279.406 208.99L279.393 210.006H278.511L278.766 210.616L279.3 210.821L279.559 211.895L279.514 214.28L279.448 216.111L279.724 217.526L279.956 218.233L279.621 219.57L278.981 220.79L278.513 221.173H278.071L277.851 211.58L277.699 208.789L277.629 207.251L277.377 197.194L277.482 190.021H282.281L282.317 192.939V220.18V220.19ZM282.317 186.377H277.697V179.299H282.506L282.316 186.377H282.317ZM283.284 167.317L284.773 166.529V170.072H283.284V167.317ZM280.904 167.002L282.508 166.529L282.317 170.072L280.904 169.53V166.999V167.002ZM276.737 167.002H278.112V170.55L276.737 170.144V167.002ZM274.43 167.294L276.002 167.317L275.795 170.55H274.43V167.294ZM271.948 180.948H275.092L275.258 186.377H271.82L271.948 180.948ZM272.113 191.258C272.113 191.258 272.272 192.037 275.092 191.771V207.257C275.092 207.257 274.089 212.145 275.092 220.135L271.82 220.19L272.113 191.258ZM270.109 167.294L271.367 167.317V170.55H270.084L270.109 167.294ZM267.562 167.317H269.093V170.861L267.562 170.55V167.317ZM265.659 180.948H268.928V186.377L265.621 187.029L265.659 180.948ZM268.693 191.771V220.135L265.3 219.58L265.272 190.839L268.693 191.771ZM263.164 167.002H264.914V170.55H263.164V167.002ZM260.812 167.002H262.295V170.861L260.812 170.55V167.002ZM258.957 180.948H261.977V186.377H258.957V180.948ZM258.568 190.839C258.568 190.839 259.93 192.03 262.295 191.258V219.502H258.568V190.836V190.839ZM235.374 222.222L234.787 223.166L234.573 221.511C234.573 221.511 234.34 221.089 234.698 219.622L234.573 212.771L234.199 212.255C234.199 212.255 235.055 212.775 235.374 211.905V222.222ZM240.574 222.222H240.036L239.864 220.174C239.864 220.174 239.33 219.337 239.864 218.441V215.841C239.864 215.841 239.437 215.196 239.864 214.03V210.801L240.574 210.016V222.218V222.222ZM242.535 185.809L243.71 185.403V190.512L242.535 191.771V185.809ZM242.27 195.13L243.124 195.863C243.124 195.863 243.391 196.181 243.606 195.775C243.606 195.775 243.606 205.745 243.124 207.257H242.537C242.537 207.257 242.729 204.775 242.644 202.084C242.555 199.287 242.191 196.253 242.272 195.133L242.27 195.13ZM243.263 209.464L243.283 221.615L242.535 222.222L242.234 210.019C242.234 210.019 242.921 210.538 243.262 209.464H243.263ZM239.864 187.435L240.933 187.029V193.03H239.864V187.435ZM240.399 196.389V207.965H240.078L239.651 205.946L239.823 202.191C239.851 200.501 239.732 198.813 239.47 197.2L239.335 196.804C239.374 196.918 239.7 197.719 240.399 196.389ZM236.781 190.028L237.829 188.584V194.393L236.781 195.126V190.025V190.028ZM237.968 197.2L237.83 209.461H237.306L237.331 203.61C237.311 202.055 237.187 200.51 236.962 199.014L236.781 198.122C236.781 198.122 237.675 199.235 237.968 197.2ZM236.781 219.07C236.781 219.07 237.332 218.152 236.781 216.12V215.527C236.781 215.527 237.546 214.014 236.781 212.22L237.829 211.59V222.222H236.781V219.07ZM235.126 190.028V195.863H234.188L234.019 191.855L235.126 190.028ZM235.126 198.281L235.374 210.019H234.698L234.646 204.148C234.633 202.782 234.497 201.432 234.246 200.153L234.021 199.621C234.021 199.621 234.666 199.77 235.128 198.281H235.126Z" fill="black"/>
<path d="M286.837 165.605V136.422H315.766V95.3285H286.837V41.2586H317.928V0H275.201V165.605H286.837Z" fill="black"/>
<path d="M343.084 136.253C340.595 142.243 338.524 149.038 336.873 156.634C336.864 156.67 336.856 156.709 336.848 156.748L348.429 172.935C350.57 160.328 352.176 152.366 353.243 149.064C354.749 144.407 357.337 142.078 361.006 142.078H363.364V193.813L374.998 210.075V0H350.511C344.745 0 340.416 1.97195 337.52 5.90613C334.624 9.84356 332.292 17.553 330.523 29.0312C328.754 40.5094 327.87 53.6806 327.87 68.5449C327.87 85.6276 329.062 100.294 331.446 112.547C333.831 124.804 337.709 132.705 343.08 136.253H343.084ZM341.432 51.5725C342.48 46.4707 343.731 43.4771 345.185 42.5884C346.64 41.703 349.672 41.2586 354.284 41.2586H363.363V103.148H354.756C349.96 103.148 346.782 102.538 345.223 101.319C343.664 100.099 342.38 96.9663 341.371 91.9197C340.361 86.873 339.858 80.0815 339.858 71.5385C339.858 62.9955 340.383 56.6775 341.43 51.5757L341.432 51.5725Z" fill="black"/>
</g>
<defs>
<clipPath id="clip0_113_97">
<rect width="375" height="244" fill="white"/>
</clipPath>
</defs>
</svg>
