<svg width="599" height="328" viewBox="0 0 599 328" fill="none" xmlns="http://www.w3.org/2000/svg">
<g clip-path="url(#clip0_79_27)">
<path d="M160.372 61.8289C160.467 62.4034 160.55 62.9305 160.62 63.4081C160.691 63.8879 160.773 64.3498 160.862 64.8003C160.951 65.2509 161.063 65.7037 161.193 66.1632C161.324 66.6228 161.49 67.1184 161.693 67.6478C161.778 67.8708 161.899 68.1141 162.061 68.3754C162.223 68.639 162.399 68.8981 162.588 69.1549C162.78 69.4117 162.981 69.6595 163.191 69.8938C163.401 70.1281 163.6 70.3331 163.785 70.502C163.899 70.6079 164.072 70.6958 164.308 70.7678C164.543 70.8399 164.796 70.885 165.068 70.9008C165.34 70.9165 165.604 70.894 165.86 70.8309C166.116 70.7678 166.319 70.6597 166.465 70.5043C166.883 70.065 167.221 69.6708 167.476 69.3238C167.732 68.9769 167.935 68.6255 168.084 68.2695C168.232 67.9136 168.346 67.5216 168.426 67.0914C168.506 66.6611 168.572 66.1407 168.629 65.5279C168.661 65.2351 168.67 64.922 168.657 64.5931C168.641 64.2642 168.613 63.924 168.572 63.5793C168.531 63.2324 168.476 62.8922 168.41 62.5543C168.344 62.2187 168.271 61.892 168.193 61.5766C168.143 61.3694 168.052 61.1464 167.917 60.9076C167.782 60.6688 167.634 60.4435 167.474 60.2317C167.314 60.02 167.161 59.833 167.018 59.6753C166.871 59.5176 166.764 59.405 166.696 59.3396C166.458 59.1054 166.166 58.8643 165.814 58.621C165.463 58.3777 165.098 58.1817 164.721 58.0353C164.342 57.8889 163.983 57.8235 163.639 57.8371C163.296 57.8528 163.02 58.006 162.808 58.2966C162.273 58.5489 161.796 58.7224 161.374 58.8193C160.954 58.9161 160.677 59.0333 160.545 59.1729C160.447 59.2766 160.374 59.4185 160.324 59.601C160.273 59.7834 160.246 59.9907 160.237 60.225C160.228 60.4593 160.237 60.7138 160.262 60.9887C160.287 61.2635 160.324 61.5428 160.367 61.8267L160.372 61.8289Z" fill="black" stroke="white" stroke-width="2" stroke-miterlimit="10"/>
<path d="M127.888 147.273C127.696 147.095 127.45 146.888 127.146 146.649C126.842 146.411 126.543 146.269 126.247 146.226C125.95 146.183 125.719 146.251 125.557 146.433C125.395 146.616 125.228 146.798 125.059 146.976C124.69 147.366 124.395 147.798 124.176 148.276C123.957 148.751 123.792 149.265 123.685 149.812C123.578 150.36 123.516 150.927 123.502 151.508C123.489 152.092 123.498 152.68 123.527 153.272C123.543 153.768 123.61 154.336 123.724 154.973C123.838 155.611 123.993 156.278 124.192 156.974C124.39 157.67 124.619 158.377 124.877 159.096C125.135 159.817 125.42 160.497 125.731 161.139C126.041 161.781 126.372 162.369 126.724 162.903C127.075 163.437 127.436 163.876 127.808 164.218C127.92 164.322 128.084 164.446 128.297 164.59C128.509 164.734 128.733 164.856 128.966 164.957C129.199 165.059 129.427 165.113 129.653 165.122C129.877 165.131 130.064 165.057 130.212 164.901C130.699 164.39 131.141 163.597 131.546 162.527C132.089 161.062 132.372 159.544 132.395 157.967C132.42 156.39 132.203 154.827 131.749 153.277C130.982 150.939 129.696 148.936 127.893 147.267L127.888 147.273Z" fill="black" stroke="white" stroke-width="2" stroke-miterlimit="10"/>
<path d="M299.5 0C134.092 0 0 73.4255 0 164C0 254.574 134.092 328 299.5 328C464.908 328 599 254.574 599 164C599 73.4255 464.908 0 299.5 0ZM138.943 65.2706C139.047 64.815 139.146 64.5397 139.235 64.445C139.707 63.9532 140.137 63.6352 140.53 63.493C140.924 63.3509 141.335 63.4772 141.768 63.8743C142.341 64.3999 142.69 64.9977 142.815 65.6632C142.948 66.3219 142.75 66.9264 142.221 67.4791C141.89 67.8243 141.471 68.1604 140.961 68.4875C140.459 68.8056 140.089 68.8552 139.849 68.6364C139.417 68.2393 139.132 67.7295 138.991 67.1047C138.851 66.4798 138.835 65.8707 138.943 65.2706ZM141.202 154.207C140.65 154.485 140.054 154.677 139.419 154.783C138.784 154.889 138.14 154.893 137.487 154.796C136.834 154.699 136.215 154.485 135.631 154.158C135.663 154.794 135.693 155.462 135.723 156.156C135.75 156.853 135.769 157.564 135.778 158.295C135.785 159.024 135.769 159.757 135.727 160.492C135.686 161.228 135.605 161.949 135.486 162.656C135.41 163.046 135.302 163.497 135.159 164.002C135.017 164.51 134.844 165.02 134.639 165.534C134.435 166.048 134.205 166.536 133.945 166.998C133.685 167.46 133.411 167.842 133.123 168.142C132.686 168.6 132.166 168.859 131.561 168.92C130.956 168.983 130.342 168.929 129.714 168.76C129.086 168.591 128.484 168.34 127.904 168.006C127.324 167.675 126.848 167.334 126.473 166.991C125.723 166.301 125.056 165.491 124.474 164.559C123.892 163.628 123.391 162.649 122.972 161.625C122.553 160.6 122.206 159.572 121.935 158.539C121.663 157.505 121.459 156.547 121.318 155.665C121.178 154.74 121.113 153.74 121.127 152.664C121.141 151.588 121.233 150.544 121.403 149.527C121.449 149.247 121.502 148.974 121.56 148.708C121.159 149.193 120.444 149.921 119.4 150.465C117.693 151.354 116.108 151.392 115.091 152.064C114.075 152.737 112.678 152.888 111.636 153.977C109.957 155.735 106.15 154.259 106.15 154.259L105.676 154.077C105.531 154.02 105.37 154.115 105.352 154.268L105.184 155.18C105.129 156.305 105.055 157.284 104.873 157.997C104.473 159.565 103.748 161.169 102.778 162.184C103.325 162.838 103.896 163.522 104.485 164.23C105.073 164.938 105.667 165.642 106.265 166.344C106.863 167.045 107.443 167.738 108.009 168.424C108.575 169.109 109.106 169.741 109.603 170.321C110.615 171.494 111.71 172.78 112.89 174.181C114.07 175.582 115.448 177.251 117.028 179.186C118.645 181.278 119.855 183.116 120.656 184.702C121.799 186.965 122.459 189.265 122.632 191.607C122.855 193.994 122.241 195.945 120.791 197.461C120.345 197.928 119.671 198.309 118.772 198.605C117.905 198.898 117.224 198.819 116.729 198.366C116.515 198.169 116.294 197.899 116.069 197.553C115.841 197.208 115.655 196.847 115.505 196.468C115.356 196.089 115.268 195.728 115.243 195.386C115.215 195.043 115.303 194.765 115.503 194.555C115.749 194.298 116.154 193.971 116.715 193.579C117.277 193.186 117.681 192.859 117.928 192.602C118.052 191.988 118.059 191.366 117.948 190.736C117.838 190.107 117.638 189.459 117.346 188.796C117.053 188.133 116.69 187.461 116.262 186.777C115.832 186.096 115.36 185.41 114.843 184.722C113.874 183.407 112.943 182.166 112.05 180.998C111.158 179.829 110.284 178.715 109.428 177.657C108.572 176.597 107.719 175.572 106.872 174.582C106.026 173.592 105.163 172.604 104.284 171.613C103.836 171.081 103.215 170.373 102.419 169.491C101.655 168.609 100.944 167.864 100.286 167.26C100.07 167 98.3933 168.13 98.046 168.27C97.2478 168.593 96.7601 168.816 96.3553 168.852C95.9504 168.888 95.564 168.897 95.1959 168.877C94.8279 168.857 94.5357 168.719 94.3218 168.46C94.0251 168.187 93.8387 166.484 93.9675 164.659C94.1033 162.746 94.6576 160.041 94.0918 159.339C93.8249 158.972 93.4661 158.514 93.0175 157.966C92.569 157.417 92.0537 156.768 91.4694 156.021C90.2871 154.541 89.337 153.305 88.6193 152.31C87.8993 151.286 87.2161 150.158 86.5698 148.926C85.9234 147.695 85.4035 146.461 85.0101 145.222C84.4696 143.364 84.2373 141.376 84.3086 139.262C84.3822 137.149 84.9802 135.502 86.1074 134.324C87.2645 133.115 88.7021 132.481 90.4228 132.427C92.125 132.326 93.611 132.858 94.8785 134.022C96.4749 135.488 97.6066 137.634 98.2737 140.46C98.6786 142.105 98.605 143.219 98.0506 143.799L97.9586 143.896C97.0845 142.547 96.0056 141.284 94.722 140.104C93.7996 139.258 92.7392 138.525 91.5384 137.907C90.3193 137.241 89.4336 137.201 88.8793 137.78C88.2168 138.475 87.9937 139.468 88.2122 140.758C88.4146 142.035 88.7757 143.289 89.2933 144.525C90.0202 146.222 91.2049 148.265 92.8473 150.652C93.6685 151.83 94.4575 152.913 95.2166 153.896C95.9757 154.88 96.7187 155.768 97.4456 156.558L98.5061 157.533C99.18 158.153 100.503 157.623 101.342 155.572C102.203 153.474 102.364 150.307 102.626 148.769C103.166 145.581 103.576 144.934 104.347 142.161C104.747 140.722 105.552 138.468 106.327 136.587C105.874 136.456 105.435 136.273 105.014 136.032C104.565 135.775 104.195 135.511 103.905 135.245C103.323 134.71 102.808 134.081 102.354 133.359C101.904 132.637 101.515 131.877 101.191 131.083C100.866 130.289 100.597 129.49 100.388 128.689C100.178 127.888 100.017 127.144 99.9092 126.46C99.7988 125.743 99.7505 124.967 99.762 124.135C99.7735 123.3 99.8448 122.49 99.976 121.703C100.107 120.916 100.296 120.196 100.54 119.542C100.783 118.888 101.078 118.38 101.425 118.017C101.598 117.836 101.782 117.642 101.977 117.439C102.17 117.236 102.375 117.045 102.587 116.866C102.798 116.688 103.019 116.526 103.249 116.379C103.479 116.232 103.716 116.126 103.962 116.061C104.089 116.032 104.278 116.034 104.526 116.068C104.774 116.102 105.034 116.158 105.308 116.237C105.579 116.316 105.837 116.411 106.081 116.521C106.325 116.632 106.497 116.733 106.603 116.83C106.893 117.096 107.22 117.518 107.581 118.094C108.057 118.791 108.487 119.427 108.874 120C109.26 120.573 109.718 121.103 110.247 121.59C110.546 121.865 110.898 122.1 111.303 122.292C111.705 122.483 112.122 122.61 112.545 122.666C112.97 122.725 113.384 122.7 113.792 122.594C114.199 122.488 114.555 122.276 114.859 121.956C115.363 121.428 115.765 120.785 116.069 120.025C116.373 119.264 116.598 118.423 116.747 117.496C116.897 116.569 116.982 115.587 117.003 114.552C117.024 113.516 117.003 112.458 116.943 111.38C116.932 111.288 116.913 111.13 116.888 110.904C116.879 110.827 116.872 110.751 116.865 110.672C116.844 110.654 116.821 110.636 116.8 110.618C116.209 110.076 115.692 109.397 115.245 108.581C114.974 108.136 114.76 107.629 114.606 107.056C114.449 106.483 114.353 105.926 114.314 105.386C114.275 104.847 114.3 104.358 114.387 103.92C114.475 103.482 114.622 103.162 114.829 102.964C115.556 102.203 116.377 102.244 117.293 103.085C117.645 103.41 117.87 103.85 117.964 104.41C118.008 104.676 118.033 104.976 118.038 105.305C118.045 105.637 118.038 106.002 118.017 106.406C117.997 106.792 117.983 107.126 117.98 107.405C117.976 107.685 117.98 107.92 117.985 108.102C118.443 108.524 119.112 108.878 119.993 109.169C120.433 109.298 120.92 109.429 121.454 109.562C121.988 109.695 122.576 109.824 123.223 109.945C123.867 110.067 124.433 110.189 124.92 110.313C125.408 110.435 125.767 110.523 125.999 110.575C126.043 110.6 126.105 110.568 126.188 110.48C126.303 110.358 126.413 110.067 126.517 109.603C126.62 109.138 126.717 108.56 126.804 107.872C126.892 107.182 126.968 106.411 127.028 105.558C127.09 104.705 127.126 103.83 127.138 102.934C127.159 102.012 127.154 101.229 127.124 100.584C127.094 99.9385 127.069 99.3317 127.051 98.7632C127.046 98.6414 127.041 98.5241 127.037 98.4158C126.565 97.9015 126.126 97.4322 125.723 97.0081C125.555 96.8367 125.335 96.6111 125.061 96.3246C124.787 96.0404 124.483 95.7291 124.152 95.393C123.821 95.0568 123.469 94.7004 123.099 94.3259C122.728 93.9515 122.367 93.5883 122.017 93.2364C121.668 92.8822 121.339 92.5528 121.031 92.2438C120.722 91.9347 120.46 91.6753 120.249 91.4655C120.009 91.2309 119.795 91.0053 119.604 90.7888C119.414 90.5722 119.234 90.3511 119.064 90.121C118.894 89.891 118.74 89.6451 118.604 89.3811C118.466 89.1172 118.328 88.8149 118.19 88.4765C118.144 88.3683 118.109 88.2329 118.086 88.066C118.063 87.899 118.061 87.7299 118.075 87.5584C118.091 87.387 118.125 87.2155 118.181 87.0463C118.236 86.8771 118.319 86.7328 118.436 86.611C118.675 86.3605 118.993 86.2275 119.391 86.2094C119.786 86.1936 120.166 86.3493 120.527 86.6831C120.642 86.7892 120.778 86.9493 120.934 87.1659C121.09 87.3824 121.247 87.6125 121.406 87.8539C121.564 88.0953 121.714 88.3277 121.859 88.5487C122.004 88.7698 122.114 88.9345 122.195 89.0405C122.489 89.442 122.846 89.8819 123.264 90.3647C123.683 90.8452 124.111 91.3324 124.55 91.8265C124.989 92.3182 125.429 92.7987 125.866 93.268C126.305 93.7349 126.696 94.1522 127.041 94.5177C127.439 94.9328 127.805 95.3298 128.139 95.7088C128.472 96.0878 128.803 96.4645 129.13 96.839C129.459 97.2134 129.795 97.5902 130.135 97.9691C130.476 98.3481 130.846 98.7519 131.246 99.185C131.84 99.8437 132.35 100.442 132.774 100.978C133.197 101.513 133.586 101.944 133.938 102.267C133.991 102.316 134.078 102.343 134.202 102.352C134.326 102.361 134.409 102.343 134.451 102.3L134.501 102.248C134.478 102.082 134.428 101.849 134.349 101.549C134.271 101.249 134.191 100.918 134.11 100.552C134.03 100.187 133.945 99.8031 133.855 99.4039C133.765 99.0046 133.692 98.6256 133.639 98.2669C133.583 97.9082 133.524 97.5157 133.459 97.0916C133.395 96.6653 133.335 96.2299 133.282 95.7832C133.229 95.3366 133.179 94.8854 133.135 94.4297C133.089 93.974 133.057 93.5409 133.034 93.1326C133.015 92.6138 133.015 92.0521 133.029 91.4497C133.043 90.8452 133.098 90.2519 133.195 89.6654C133.291 89.0788 133.432 88.5329 133.62 88.0231C133.809 87.5133 134.06 87.096 134.372 86.7666C134.43 86.7057 134.524 86.6425 134.655 86.5749C134.786 86.5072 134.931 86.4553 135.092 86.4169C135.253 86.3786 135.421 86.3583 135.596 86.356C135.771 86.356 135.941 86.3899 136.107 86.4598C136.749 86.7237 137.344 87.035 137.894 87.396C138.444 87.7547 139.012 88.1472 139.599 88.5735C140.098 88.9345 140.613 89.3044 141.147 89.6812C141.681 90.0579 142.187 90.376 142.665 90.6376C143.144 90.8993 143.578 91.0662 143.969 91.1429C144.36 91.2174 144.669 91.1384 144.892 90.9061C145.906 89.8436 146.64 88.6006 147.089 87.1794C147.328 86.426 147.51 85.7515 147.629 85.1582C147.749 84.5649 147.838 83.9874 147.891 83.4279C147.944 82.8685 147.972 82.2887 147.967 81.6842C147.963 81.0796 147.963 80.3826 147.963 79.5862C147.965 79.3426 147.97 79.117 147.974 78.9072C147.88 78.8012 147.783 78.6907 147.684 78.5779C147.259 78.0884 146.898 77.6598 146.603 77.2921C146.309 76.9243 146.086 76.613 145.931 76.3581C145.632 75.8573 145.515 75.2686 145.577 74.5963C145.63 73.8993 145.865 73.3353 146.277 72.9022C146.5 72.6698 146.836 72.7578 147.284 73.1706C147.583 73.4458 147.896 73.7865 148.223 74.1903C148.547 74.5941 148.867 74.9979 149.18 75.3971C149.768 76.1483 150.314 76.8048 150.815 77.362C151.317 77.9192 151.77 78.3861 152.175 78.7584C153.065 79.5772 154.079 80.281 155.218 80.8721C156.375 81.4812 157.254 81.4699 157.856 80.8382C158.468 80.1976 158.94 79.2366 159.273 77.953C159.432 77.3033 159.563 76.6288 159.667 75.9295C159.772 75.2302 159.841 74.4993 159.876 73.7368C159.92 72.9653 159.943 72.2074 159.947 71.4652C159.952 70.723 159.938 69.9809 159.906 69.2364C159.874 68.5213 159.832 67.8671 159.779 67.2693C159.602 66.676 159.448 66.067 159.324 65.4398C159.135 64.4856 158.972 63.5088 158.836 62.5072C158.758 61.9478 158.721 61.359 158.726 60.7387C158.73 60.1183 158.783 59.5137 158.882 58.9227C158.981 58.3339 159.133 57.7812 159.333 57.2692C159.533 56.7548 159.795 56.3307 160.117 55.9946C160.382 55.7171 160.649 55.5164 160.918 55.39C161.187 55.2637 161.479 55.1802 161.794 55.1351C162.11 55.0923 162.466 55.0787 162.864 55.0945C163.262 55.1103 163.713 55.1239 164.217 55.1329C164.371 55.1284 164.69 55.0223 165.18 54.8125C165.67 54.6027 166.216 54.3275 166.818 53.9801C167.421 53.635 168.031 53.247 168.645 52.8229C169.259 52.3965 169.772 51.9679 170.184 51.5348C170.595 51.1017 170.961 50.6911 171.276 50.2986C171.591 49.9083 171.879 49.5091 172.134 49.103C172.27 48.8864 172.397 48.6631 172.518 48.4353C172.226 47.9254 171.98 47.4201 171.787 46.9216C171.693 46.6735 171.642 46.4546 171.631 46.2674C171.619 46.0802 171.637 45.9132 171.683 45.7689C171.729 45.6245 171.798 45.4936 171.888 45.3718C171.978 45.25 172.077 45.135 172.185 45.0222C172.316 44.8846 172.532 44.8507 172.829 44.9207C173.126 44.9906 173.445 45.1846 173.791 45.5004C174.002 45.6944 174.184 45.8952 174.336 46.0982C174.488 46.3035 174.632 46.5246 174.768 46.7637C174.904 47.0028 175.051 47.26 175.21 47.5352C175.369 47.8104 175.559 48.1172 175.785 48.4533C175.973 48.724 176.183 49.024 176.411 49.3579C176.641 49.6895 176.878 50.0211 177.124 50.3527C177.37 50.6843 177.618 51.0002 177.867 51.3024C178.115 51.6047 178.354 51.8619 178.584 52.0717C178.743 52.2183 178.932 52.3424 179.148 52.4439C179.353 52.1777 179.362 51.4401 179.178 50.2309C179.088 49.6128 178.992 48.9361 178.886 48.1984C178.78 47.4607 178.658 46.6531 178.518 45.7779C178.41 45.1282 178.329 44.5033 178.269 43.9078C178.212 43.31 178.205 42.7415 178.251 42.2001C178.297 41.6587 178.414 41.1444 178.603 40.6616C178.791 40.1789 179.088 39.7254 179.493 39.3013C179.923 38.8524 180.379 38.5682 180.862 38.4532C181.345 38.3381 181.846 38.3494 182.368 38.487C182.891 38.6246 183.44 38.8682 184.02 39.2134C184.6 39.5585 185.209 39.9691 185.849 40.4428C186.392 40.8443 186.928 41.2436 187.459 41.6429C187.988 42.0399 188.512 42.3467 189.028 42.561C189.543 42.7754 190.044 42.8611 190.53 42.8205C191.015 42.7799 191.489 42.5182 191.951 42.0332C192.306 41.661 192.591 41.1917 192.803 40.6233C193.014 40.0548 193.177 39.4029 193.295 38.6652C193.412 37.9275 193.488 37.1267 193.523 36.2582C193.557 35.3897 193.569 34.4693 193.552 33.4993C193.548 33.1226 193.513 32.6804 193.444 32.1706C193.375 31.6608 193.316 31.1668 193.26 30.6863C193.205 30.2058 193.178 29.7772 193.173 29.4004C193.168 29.0237 193.226 28.7756 193.341 28.6538C193.391 28.6019 193.497 28.541 193.661 28.4733C193.824 28.4056 193.969 28.4282 194.093 28.541C194.261 28.6944 194.404 28.8793 194.521 29.0936C194.638 29.308 194.744 29.5358 194.838 29.7749C194.933 30.014 195.011 30.2622 195.075 30.5148C195.14 30.7675 195.202 31.0111 195.259 31.2435C195.416 31.8593 195.54 32.5225 195.627 33.2354C195.715 33.9482 195.77 34.6769 195.791 35.4168C195.811 36.1567 195.8 36.8898 195.754 37.6117C195.71 38.3336 195.634 39.0103 195.526 39.642C195.441 40.1473 195.356 40.6255 195.273 41.0767C195.19 41.5279 195.078 41.9565 194.937 42.3625C194.797 42.7686 194.617 43.1656 194.399 43.5491C194.18 43.9326 193.895 44.3116 193.539 44.6815C192.853 45.3989 192.11 45.8117 191.312 45.9223C190.912 45.9764 190.484 45.9538 190.028 45.8501C189.573 45.7463 189.104 45.5929 188.623 45.3854C188.142 45.1778 187.654 44.9342 187.162 44.6522C186.67 44.3702 186.196 44.077 185.743 43.7747C185.175 43.398 184.662 43.0664 184.204 42.7753C183.746 42.4843 183.339 42.261 182.983 42.1054C182.626 41.9497 182.315 41.8685 182.046 41.864C181.777 41.8595 181.543 41.961 181.345 42.1685C181.188 42.3332 181.057 42.5047 180.951 42.6829C180.846 42.8611 180.77 43.0799 180.724 43.3371C180.678 43.5942 180.659 43.9078 180.671 44.2755C180.682 44.6432 180.726 45.1011 180.8 45.647C180.873 46.193 180.981 46.8404 181.126 47.5916C181.271 48.3405 181.451 49.2271 181.662 50.2512C181.763 50.7498 181.86 51.3182 181.95 51.9521C182.039 52.586 182.104 53.2109 182.148 53.8245C182.189 54.4381 182.198 55.0111 182.173 55.5389C182.148 56.0668 182.062 56.4774 181.92 56.7661C181.025 57.3729 179.698 56.8654 177.936 55.2479C177.469 54.8193 176.809 54.1155 175.955 53.1365C175.573 52.6875 175.18 52.2116 174.773 51.7108C174.471 51.3363 174.179 50.9528 173.894 50.5603C173.834 50.6821 173.772 50.8062 173.701 50.9347C173.324 51.6341 172.742 52.3943 171.957 53.2154C171.329 53.8719 170.611 54.4539 169.804 54.9614C168.997 55.469 168.102 55.848 167.117 56.0961C167.616 56.1818 168.033 56.324 168.369 56.527C168.705 56.73 169.066 57.0097 169.454 57.3662C170.151 58.0068 170.726 58.8595 171.18 59.9243C171.651 60.9891 171.969 62.1034 172.137 63.2629C172.302 64.4224 172.328 65.5075 172.206 66.5159C172.139 67.0889 172.008 67.6618 171.815 68.2371C171.619 68.8123 171.373 69.3763 171.069 69.9267C170.768 70.4771 170.418 71.0163 170.02 71.5442C169.622 72.072 169.195 72.5773 168.732 73.0623C168.41 73.3985 167.987 73.6263 167.46 73.7436C166.933 73.8609 166.393 73.8993 165.836 73.8587C165.279 73.818 164.748 73.7075 164.242 73.527C163.736 73.3466 163.338 73.1232 163.046 72.8548C162.682 72.5209 162.351 72.1713 162.047 71.8013C162.066 72.0382 162.082 72.2773 162.098 72.5187C162.165 73.4887 162.183 74.4677 162.158 75.458C162.13 76.4484 162.054 77.459 161.926 78.4944C161.686 80.5472 161.111 82.0474 160.205 82.9993C159.207 84.0461 158.073 84.5288 156.805 84.4521C155.528 84.3664 154.282 83.9581 153.06 83.2272C151.908 82.5391 150.817 81.7293 149.787 80.7999C149.81 80.9939 149.828 81.1834 149.844 81.3684C149.872 81.6864 149.89 81.9616 149.897 82.1963C149.939 83.1753 149.929 84.1634 149.867 85.1627C149.808 86.162 149.676 87.1343 149.476 88.0795C149.276 89.0247 148.984 89.9248 148.598 90.7775C148.211 91.6325 147.705 92.3949 147.077 93.0694C146.589 93.5793 146.063 93.9425 145.492 94.1568C144.922 94.3711 144.314 94.3936 143.668 94.2222C143.022 94.0507 142.375 93.7733 141.731 93.392C141.087 93.0108 140.422 92.5709 139.739 92.0723C139.633 91.9911 139.477 91.8716 139.265 91.7114C139.056 91.5512 138.824 91.373 138.568 91.1813C138.313 90.9873 138.046 90.7955 137.768 90.6038C137.487 90.4121 137.227 90.2451 136.981 90.1007C136.737 89.9586 136.523 89.8549 136.344 89.7939C136.164 89.733 136.038 89.7376 135.973 89.8052C135.718 90.0737 135.55 90.6083 135.47 91.4114C135.389 92.2145 135.382 93.1664 135.449 94.265C135.516 95.3636 135.647 96.548 135.842 97.8157C136.038 99.0835 136.284 100.324 136.581 101.538C136.829 102.594 137.119 103.611 137.45 104.59C137.782 105.569 138.071 106.422 138.317 107.15C138.407 107.507 138.419 107.811 138.354 108.06C138.29 108.308 138.228 108.463 138.17 108.524C138.039 108.662 137.871 108.772 137.669 108.854C137.466 108.935 137.257 108.987 137.038 109.005C136.822 109.025 136.608 109.007 136.404 108.955C136.199 108.903 136.026 108.815 135.895 108.696C135.78 108.59 135.612 108.398 135.389 108.12C135.166 107.843 134.918 107.527 134.639 107.177C134.363 106.826 134.076 106.465 133.777 106.092C133.478 105.72 133.195 105.38 132.928 105.071C132.403 104.475 131.831 103.819 131.21 103.101C130.588 102.384 129.956 101.664 129.312 100.945C129.236 100.859 129.162 100.778 129.086 100.692C129.107 100.918 129.123 101.15 129.135 101.389C129.148 101.678 129.162 102.003 129.174 102.361C129.185 102.722 129.197 103.142 129.208 103.622C129.22 104.103 129.231 104.667 129.245 105.312C129.257 105.889 129.252 106.514 129.231 107.184C129.211 107.854 129.181 108.524 129.137 109.192C129.096 109.86 129.05 110.505 129.004 111.125C128.955 111.748 128.918 112.289 128.891 112.749C128.817 113.85 128.741 114.892 128.668 115.881C128.594 116.869 128.481 117.803 128.332 118.687C128.04 120.446 127.593 121.642 126.991 122.274C126.784 122.49 126.487 122.689 126.101 122.867C125.705 123.056 125.406 123.056 125.203 122.871C124.631 122.346 124.385 121.721 124.463 120.997C124.55 120.297 124.835 119.343 125.316 118.13C125.79 116.941 126.064 115.978 126.142 115.238C126.22 114.498 125.967 113.862 125.387 113.327C125.098 113.061 124.221 112.815 122.76 112.594C122.031 112.474 121.369 112.357 120.775 112.242C120.182 112.127 119.657 112.014 119.2 111.903C119.085 111.874 118.974 111.843 118.864 111.806C118.887 112.014 118.912 112.242 118.937 112.49C118.963 112.74 118.983 113.009 119.002 113.293C119.02 113.577 119.025 113.862 119.018 114.148C119.009 115.145 118.993 116.117 118.974 117.065C118.953 118.012 118.866 118.924 118.707 119.801C118.549 120.679 118.293 121.511 117.944 122.301C117.594 123.09 117.083 123.828 116.416 124.511C116.11 124.832 115.745 125.098 115.314 125.312C114.884 125.527 114.424 125.675 113.932 125.759C113.44 125.842 112.94 125.845 112.432 125.77C111.926 125.693 111.445 125.529 110.992 125.276C111.017 125.77 111.04 126.287 111.063 126.826C111.086 127.365 111.1 127.918 111.105 128.484C111.107 128.809 111.105 129.136 111.093 129.463C111.093 129.513 111.093 129.565 111.091 129.619C111.086 129.826 111.077 129.991 111.068 130.131C111.068 130.149 111.068 130.169 111.068 130.187C111.04 130.656 110.992 131.119 110.925 131.574C110.921 131.649 110.919 131.73 110.916 131.818C110.875 132.023 110.916 132.639 110.311 133.927C110.291 133.963 110.27 134.002 110.247 134.042C110.24 134.063 110.233 134.081 110.226 134.101C110.083 134.462 109.922 134.805 109.743 135.132C108.209 138.836 105.665 147.81 105.386 151.099L105.407 151.735C105.416 151.985 105.586 152.202 105.83 152.274L106.401 152.441C106.401 152.441 108.894 152.89 110.567 151.356C111.496 150.503 113.138 150.12 114.417 149.946C115.86 149.75 117.217 149.161 118.349 148.261C119.223 147.568 120.262 146.668 121.258 145.626C123.177 143.618 125.282 142.468 126.512 142.245C126.517 142.245 126.521 142.242 126.524 142.24C126.535 142.238 126.551 142.236 126.565 142.233C126.568 142.233 126.57 142.233 126.574 142.233C126.607 142.229 126.639 142.222 126.673 142.22C126.908 142.19 127.103 142.2 127.253 142.249C127.575 142.292 127.909 142.366 128.261 142.468C128.61 142.569 128.944 142.691 129.257 142.833C129.569 142.976 129.795 143.109 129.931 143.233C129.986 143.285 130.043 143.341 130.101 143.4C130.501 143.743 130.878 144.209 131.191 144.861C131.805 145.759 132.362 146.58 132.859 147.32C133.358 148.06 133.947 148.744 134.63 149.371C135.017 149.725 135.47 150.027 135.99 150.275C136.509 150.524 137.045 150.684 137.593 150.758C138.14 150.833 138.676 150.801 139.201 150.666C139.725 150.53 140.185 150.255 140.579 149.845C141.227 149.166 141.75 148.335 142.141 147.356C142.532 146.377 142.824 145.29 143.015 144.094C143.206 142.899 143.316 141.636 143.344 140.3C143.371 138.965 143.344 137.602 143.265 136.21C143.249 136.093 143.226 135.888 143.196 135.597C143.164 135.306 143.139 135.01 143.118 134.708C143.102 134.478 143.095 134.259 143.095 134.051C143.045 133.997 142.992 133.941 142.941 133.887C142.449 133.361 142 132.876 141.595 132.429C141.191 131.983 140.887 131.606 140.689 131.299C140.586 131.141 140.5 130.916 140.436 130.627C140.372 130.338 140.335 130.036 140.323 129.722C140.312 129.409 140.333 129.109 140.383 128.82C140.434 128.531 140.523 128.322 140.652 128.188C140.875 127.954 141.115 127.812 141.365 127.76C141.616 127.708 141.878 127.719 142.152 127.791C142.424 127.864 142.702 127.992 142.982 128.177C143.263 128.362 143.535 128.576 143.797 128.816C144.071 129.066 144.386 129.404 144.747 129.831C145.108 130.257 145.49 130.729 145.892 131.245C146.295 131.762 146.707 132.303 147.128 132.867C147.549 133.431 147.949 133.972 148.331 134.489C148.713 135.006 149.062 135.482 149.387 135.915C149.709 136.348 149.98 136.695 150.199 136.959C150.728 137.634 151.16 138.157 151.498 138.529C151.836 138.901 152.117 139.192 152.345 139.402C152.336 139.123 152.29 138.735 152.207 138.24C152.124 137.746 152.011 137.183 151.869 136.549C151.726 135.915 151.558 135.231 151.363 134.498C151.167 133.765 150.965 133.016 150.751 132.256C150.601 131.721 150.429 131.119 150.235 130.449C150.042 129.779 149.858 129.098 149.679 128.4C149.499 127.703 149.347 127.033 149.214 126.388C149.083 125.743 148.993 125.179 148.943 124.694C148.844 123.724 148.892 122.858 149.088 122.095C149.283 121.333 149.642 120.679 150.162 120.133C150.672 119.598 151.33 119.327 152.135 119.325C152.941 119.323 153.746 119.567 154.555 120.058C154.937 120.284 155.354 120.568 155.807 120.909C156.26 121.252 156.729 121.615 157.214 121.998C157.7 122.382 158.185 122.77 158.666 123.16C159.147 123.55 159.609 123.916 160.048 124.259C160.479 124.59 160.854 124.845 161.173 125.026C161.493 125.204 161.762 125.33 161.978 125.405C162.195 125.479 162.363 125.518 162.478 125.518C162.593 125.518 162.666 125.504 162.698 125.47C162.901 125.258 162.793 124.489 162.374 123.162C162.165 122.488 161.93 121.739 161.672 120.916C161.415 120.092 161.13 119.183 160.821 118.188C160.525 117.205 160.276 116.212 160.078 115.213C159.881 114.213 159.745 113.289 159.671 112.438C159.598 111.588 159.6 110.85 159.671 110.225C159.745 109.603 159.904 109.16 160.147 108.905C160.306 108.739 160.49 108.581 160.693 108.434C160.897 108.287 161.114 108.161 161.341 108.057C161.569 107.954 161.792 107.881 162.011 107.841C162.229 107.802 162.427 107.8 162.606 107.838C163.039 107.922 163.462 108.087 163.878 108.332C164.295 108.578 164.743 108.892 165.224 109.271C165.705 109.65 166.234 110.079 166.811 110.557C167.389 111.035 168.044 111.549 168.78 112.098C170.349 113.246 171.642 113.979 172.654 114.292C173.666 114.606 174.467 114.457 175.053 113.844C175.277 113.609 175.479 113.241 175.661 112.738C175.842 112.235 175.996 111.667 176.125 111.03C176.252 110.394 176.351 109.722 176.422 109.011C176.491 108.301 176.539 107.622 176.56 106.972C176.583 106.323 176.59 105.686 176.578 105.059C176.569 104.432 176.555 103.798 176.539 103.155C176.523 102.512 176.503 101.849 176.473 101.163C176.466 100.974 176.457 100.782 176.45 100.586C175.914 99.9701 175.458 99.4287 175.086 98.964C174.706 98.4902 174.418 98.0887 174.218 97.7593C173.834 97.1119 173.682 96.3562 173.763 95.4877C173.832 94.5876 174.133 93.8612 174.665 93.304C174.952 93.004 175.385 93.1191 175.964 93.6514C176.351 94.0056 176.753 94.4455 177.174 94.9666C177.593 95.4877 178.005 96.0065 178.407 96.5231C179.166 97.4931 179.87 98.3368 180.517 99.0564C181.163 99.7761 181.747 100.376 182.269 100.857C183.417 101.912 184.726 102.821 186.194 103.584C187.684 104.369 188.821 104.353 189.598 103.541C190.387 102.715 190.994 101.475 191.425 99.8189C191.627 98.9798 191.797 98.1113 191.933 97.2089C192.069 96.3088 192.158 95.3636 192.202 94.3801C192.257 93.3853 192.287 92.4085 192.294 91.452C192.301 90.4955 192.283 89.5368 192.239 88.5758C192.195 87.6148 192.14 86.7373 192.069 85.9387C192.034 85.562 192 85.2056 191.958 84.8649C191.303 84.1318 190.656 83.3828 190.024 82.6181C189.232 81.6594 188.462 80.6961 187.712 79.7261C186.964 78.7561 186.249 77.8109 185.568 76.8928C185.097 76.2701 184.712 75.7558 184.418 75.3498C184.123 74.9437 183.85 74.5715 183.597 74.2331C183.344 73.8947 183.081 73.5609 182.812 73.2293C182.543 72.8977 182.207 72.4848 181.805 71.9886C181.529 71.6524 181.287 71.3524 181.08 71.0885C180.873 70.8245 180.701 70.608 180.563 70.441C180.333 70.1455 180.144 69.8297 179.994 69.4958C179.845 69.1597 179.751 68.8236 179.714 68.483C179.675 68.1446 179.7 67.8152 179.79 67.4994C179.879 67.1836 180.045 66.8971 180.291 66.6399C180.802 66.1053 181.437 65.9451 182.191 66.1572C182.479 66.5475 182.75 66.9287 183.006 67.2987C183.261 67.6686 183.544 68.0476 183.854 68.4379C185.021 70.0327 185.961 71.3253 186.677 72.3179C187.392 73.3105 187.896 74.0143 188.186 74.4249C188.775 75.2167 189.412 76.0694 190.097 76.9807C190.783 77.8944 191.496 78.8102 192.239 79.7329C192.98 80.6555 193.734 81.5421 194.5 82.3925C195.266 83.243 196.014 84.0032 196.741 84.6709C197.525 85.3905 198.296 85.9861 199.055 86.453C199.814 86.92 200.552 87.2268 201.268 87.3712C201.983 87.5155 202.671 87.4885 203.331 87.29C203.991 87.0914 204.615 86.6854 205.199 86.0718C205.838 85.4041 206.315 84.6078 206.632 83.6829C206.949 82.7602 207.159 81.7857 207.262 80.7615C207.366 79.7374 207.391 78.6997 207.34 77.6462C207.29 76.595 207.214 75.6047 207.117 74.6798C207.025 73.9263 206.952 73.2721 206.894 72.7172C206.837 72.1623 206.786 71.6976 206.74 71.3208C206.708 71.0185 206.689 70.6937 206.683 70.3418C206.676 69.9899 206.747 69.7372 206.897 69.5816C206.931 69.5455 206.97 69.5207 207.014 69.5049C206.922 69.3582 206.832 69.2116 206.749 69.0672C206.48 68.6116 206.156 68.0679 205.779 67.4363C205.401 66.8046 204.971 66.0715 204.49 65.2323C204.221 64.7766 204.012 64.3525 203.862 63.9645C203.711 63.5742 203.625 63.2066 203.602 62.8614C203.579 62.5163 203.635 62.1847 203.768 61.8666C203.902 61.5485 204.127 61.2237 204.447 60.8875C204.755 60.565 205.187 60.4792 205.744 60.6349C206.266 60.7793 206.715 61.0251 207.09 61.3703C207.317 61.5801 207.474 61.8169 207.559 62.0854C207.596 62.2253 207.653 62.4238 207.727 62.6787C207.801 62.9358 207.89 63.2562 207.991 63.6419C208.093 64.0277 208.182 64.3412 208.263 64.5804C208.343 64.8217 208.417 64.9932 208.486 65.0992C208.675 65.4398 208.838 65.7354 208.978 65.9903C209.119 66.2452 209.231 66.464 209.314 66.6445C209.408 66.8136 209.521 67.0144 209.657 67.2423C209.79 67.4701 209.947 67.7385 210.122 68.0453C210.471 68.6386 210.819 69.153 211.164 69.5838C211.509 70.0169 211.909 70.441 212.362 70.8584C212.818 71.2757 213.452 71.693 214.271 72.1104C215.122 72.5367 215.702 72.5886 216.013 72.266C216.949 71.2847 217.793 69.832 218.545 67.9055C219.286 65.97 219.721 64.0051 219.854 62.0132C219.985 60.0213 219.686 58.4693 218.955 57.3571C218.86 57.188 218.688 56.9669 218.437 56.6939C218.186 56.421 217.901 56.1232 217.581 55.7984C217.262 55.4735 216.926 55.1396 216.574 54.7922C216.222 54.4471 215.884 54.111 215.566 53.7861C215.247 53.4613 214.964 53.1658 214.72 52.8973C214.474 52.6289 214.304 52.4101 214.212 52.2409C213.443 50.9911 213.367 50.0414 213.984 49.3963C214.57 48.7827 215.09 48.5503 215.548 48.6969C216.038 48.8549 216.652 49.2722 217.391 49.9512C217.584 50.1294 217.802 50.3415 218.048 50.5873C218.295 50.8332 218.571 51.1197 218.879 51.4446C219.176 51.7581 219.482 52.0875 219.797 52.4281C220.112 52.7687 220.434 53.1229 220.765 53.4906C221.096 53.8583 221.391 54.1809 221.648 54.4584C221.906 54.7358 222.125 54.9705 222.309 55.1577C223.792 56.6669 225.237 58.2978 226.645 60.0529C228.052 61.8079 229.325 63.5517 230.463 65.2887C232.366 68.1446 233.654 70.9418 234.328 73.6737C235.015 76.4393 234.399 78.826 232.483 80.8315C231.227 82.1466 229.693 83.2272 227.88 84.0754C226.09 84.9213 224.287 85.368 222.47 85.4154C221.29 85.3567 220.574 85.2123 220.323 84.9822C220.038 84.7206 219.794 84.3393 219.592 83.8385C219.41 83.3355 219.426 82.9745 219.638 82.7512C219.755 82.6294 219.925 82.5843 220.146 82.6226C221.055 82.7444 221.832 82.7805 222.481 82.7264C225.239 82.476 227.751 81.1631 230.019 78.7899C230.914 77.8538 231.241 76.6176 231.004 75.0791C230.9 74.3143 230.725 73.5609 230.475 72.8187C230.224 72.0765 229.923 71.3434 229.566 70.6193C229.212 69.8951 228.823 69.1845 228.404 68.4852C227.983 67.7859 227.537 67.0911 227.063 66.4053C226.612 65.7827 226.251 65.2887 225.982 64.9255C225.711 64.5623 225.524 64.3209 225.421 64.2059C224.998 63.7119 224.574 63.2494 224.151 62.8208C223.73 62.3922 223.335 61.9455 222.966 61.4808C222.817 61.9297 222.578 62.9133 222.256 64.4382C222.065 65.3293 221.888 66.1414 221.724 66.87C221.561 67.5987 221.411 68.2461 221.276 68.8123C221.016 69.956 220.643 71.1719 220.158 72.4623C219.661 73.7639 219.125 74.7159 218.55 75.3182C217.549 76.3649 216.351 76.7822 214.955 76.5679C213.558 76.3536 212.305 75.7333 211.191 74.7114C210.478 74.0549 209.756 73.2654 209.024 72.3405C209.1 72.557 209.176 72.7826 209.252 73.024C209.351 73.3443 209.448 73.7526 209.54 74.2467C209.634 74.7407 209.714 75.2708 209.783 75.8348C209.852 76.3987 209.915 76.9807 209.974 77.5785C210.032 78.1763 210.071 78.7448 210.089 79.284C210.117 80.1051 210.092 80.9555 210.018 81.8398C209.942 82.7219 209.802 83.5971 209.592 84.4634C209.383 85.3296 209.096 86.1508 208.725 86.9313C208.355 87.7095 207.893 88.3886 207.338 88.9683C206.604 89.7376 205.774 90.3263 204.852 90.7324C203.929 91.1407 202.935 91.3212 201.87 91.2738C200.805 91.2264 199.692 90.9354 198.528 90.4008C197.364 89.8661 196.175 89.0382 194.958 87.9216C194.811 87.7862 194.663 87.6464 194.519 87.5065C194.627 88.1607 194.723 88.8645 194.808 89.6202C194.926 90.6602 195.018 91.7227 195.089 92.8123C195.174 94.062 195.199 95.3275 195.165 96.6021C195.13 97.8789 195.029 99.1828 194.866 100.518C194.558 103.164 193.817 105.1 192.646 106.327C191.358 107.676 189.897 108.301 188.262 108.202C186.617 108.091 185.007 107.565 183.433 106.623C181.871 105.689 180.397 104.586 179.01 103.311C178.973 103.277 178.934 103.241 178.895 103.203C178.962 103.733 179.021 104.29 179.072 104.872C179.136 105.621 179.176 106.395 179.192 107.193C179.208 107.992 179.192 108.75 179.153 109.463C179.116 110.036 179.061 110.688 178.987 111.414C178.911 112.14 178.794 112.869 178.63 113.598C178.467 114.326 178.246 115.023 177.963 115.687C177.683 116.35 177.335 116.898 176.919 117.333C176.546 117.724 176.151 118.026 175.734 118.238C175.318 118.452 174.828 118.545 174.264 118.52C173.701 118.495 173.052 118.333 172.314 118.03C171.578 117.73 170.706 117.254 169.705 116.607C169.277 116.341 168.833 116.041 168.369 115.709C167.906 115.377 167.446 115.05 166.988 114.723C166.531 114.398 166.091 114.083 165.668 113.776C165.245 113.471 164.858 113.216 164.511 113.011C164.164 112.806 163.869 112.661 163.63 112.578C163.391 112.495 163.227 112.497 163.142 112.585C163.004 112.729 162.935 113.047 162.935 113.539C162.935 114.031 163.002 114.669 163.14 115.454C163.276 116.239 163.474 117.144 163.734 118.166C163.993 119.19 164.313 120.307 164.695 121.513C165.47 123.92 165.983 125.827 166.241 127.234C166.496 128.642 166.381 129.601 165.891 130.115C165.157 130.884 164.293 131.062 163.299 130.652C162.314 130.207 160.916 129.204 159.101 127.643C157.353 126.1 155.917 125.005 154.795 124.36C153.672 123.715 152.954 123.555 152.646 123.878C152.455 124.078 152.359 124.541 152.361 125.265C152.361 125.989 152.455 126.891 152.641 127.972C152.826 129.052 153.088 130.282 153.426 131.658C153.764 133.036 154.178 134.485 154.67 136.003C154.795 136.409 154.937 136.876 155.096 137.399C155.257 137.922 155.418 138.453 155.579 138.987C155.74 139.522 155.887 140.034 156.018 140.521C156.149 141.008 156.248 141.419 156.315 141.751C156.483 142.513 156.35 143.122 155.913 143.578C155.103 144.426 154.127 144.575 152.987 144.029C152.694 143.887 152.46 143.77 152.28 143.679C152.101 143.587 151.931 143.488 151.767 143.379C151.604 143.271 151.434 143.142 151.259 142.991C151.084 142.84 150.859 142.639 150.585 142.389C150.13 141.972 149.727 141.575 149.373 141.196C149.018 140.819 148.669 140.429 148.326 140.029C147.983 139.63 147.62 139.192 147.24 138.719C146.861 138.245 146.408 137.704 145.881 137.092C145.853 137.061 145.826 137.029 145.798 136.995C145.821 137.198 145.844 137.41 145.867 137.643C145.899 137.965 145.927 138.31 145.952 138.678C145.975 139.046 145.982 139.411 145.973 139.779C145.961 141.065 145.941 142.319 145.915 143.542C145.89 144.764 145.775 145.94 145.57 147.07C145.366 148.2 145.037 149.276 144.586 150.293C144.135 151.313 143.477 152.263 142.614 153.145C142.221 153.558 141.747 153.903 141.195 154.178L141.202 154.207ZM169.454 86.3132C169.029 86.7598 168.486 87.193 167.828 87.6125C167.182 88.0231 166.703 88.0863 166.397 87.8043C165.841 87.2922 165.47 86.6335 165.291 85.8304C165.109 85.0251 165.088 84.2378 165.229 83.4663C165.364 82.8775 165.489 82.5234 165.606 82.4015C166.213 81.7654 166.77 81.3571 167.276 81.1721C167.782 80.9894 168.313 81.1518 168.87 81.6639C169.609 82.3429 170.059 83.1121 170.22 83.9716C170.393 84.8198 170.138 85.6003 169.454 86.3132ZM182.412 282.793C181.986 283.745 181.34 284.223 180.471 284.223C179.601 284.223 178.996 283.849 178.653 283.097C178.313 282.346 178.14 280.659 178.14 278.031V269.499H165.999V274.09C165.999 279.346 166.381 283.402 167.15 286.26C167.916 289.118 169.535 291.473 172.01 293.319C172.679 293.819 173.388 294.248 174.133 294.613H142.674L165.739 246.605C165.9 248.637 166.199 250.408 166.637 251.915C167.329 254.313 168.205 256.187 169.261 257.545C170.317 258.903 172.47 261.083 175.72 264.085C178.971 267.058 181.009 269.181 181.837 270.451C182.644 271.721 183.047 274.421 183.047 278.55C183.047 280.426 182.835 281.841 182.41 282.795L182.412 282.793ZM255.155 294.611V264.559L260.448 294.611H255.155ZM295.684 294.611C297.593 275.991 298.808 263.735 299.33 257.845C300.473 271.584 301.791 283.84 303.286 294.611H295.684ZM344.809 274.735C344.809 278.865 344.685 281.478 344.436 282.574C344.188 283.673 343.618 284.221 342.727 284.221C341.837 284.221 341.303 283.745 341.067 282.791C340.827 281.839 340.71 279.326 340.71 275.254V242.51C340.71 238.901 340.892 236.728 341.253 235.991C341.614 235.255 342.138 234.885 342.822 234.885C343.629 234.885 344.163 235.341 344.42 236.25C344.678 237.159 344.809 239.246 344.809 242.508V274.73V274.735ZM379.806 294.611H375.831V262.998C377.632 262.998 378.746 263.447 379.169 264.34C379.592 265.236 379.806 267.559 379.806 271.313V294.609V294.611ZM379.806 245.761C379.806 248.851 379.512 250.676 378.92 251.24C378.329 251.804 377.301 252.084 375.831 252.084V236.492C377.342 236.492 378.382 236.839 378.953 237.532C379.521 238.224 379.806 239.684 379.806 241.906V245.761ZM408.438 292.265L408.452 248.36L412.194 284.444L408.438 292.265ZM424.869 258.069L425.906 247.279V255.905L424.869 258.069ZM499.85 202.415C499.397 202.972 496.655 203.793 496.643 203.798L496.37 203.597L495.824 203.998C495.824 203.998 492.118 205.246 492.142 204.98C492.165 204.714 491.893 204.801 491.891 204.801C491.868 205.203 490.391 205.469 490.391 205.469C487.532 206.22 487.525 205.747 487.525 205.738C486.683 206.094 484.5 206.072 483.614 206.049C482.729 206.026 482.795 205.16 482.795 205.158C482.793 205.158 482.022 204.889 481.749 204.98C481.475 205.068 481.022 205.135 481.022 205.135C478.16 204.824 476.614 204.847 476.61 204.847C476.474 206.006 475.179 205.828 475.177 205.828L472.106 205.76C471.878 205.537 471.788 205.559 471.788 205.559C471.653 205.514 471.607 205.711 471.607 205.715C467.728 205.582 468.055 205.311 468.057 205.309C468.057 205.309 467.991 205.18 467.687 205.268C467.383 205.359 466.629 205.268 466.627 205.268C464.605 204.666 465.101 203.495 465.101 203.495L465.283 201.815C465.009 201.28 465.124 200.567 465.124 200.567C465.442 199.387 465.93 198.925 465.93 198.923C465.803 198.172 466.238 197.003 466.238 197.001C465.605 196.556 466.141 196.29 466.146 196.288C466.1 195.708 466.327 195.598 466.327 195.598C466.985 195.465 467.054 195.176 467.054 195.174C466.668 193.567 466.985 192.877 467.305 192.476C467.503 192.227 467.593 191.564 467.634 191.093C467.659 190.811 467.756 190.54 467.908 190.299C468.043 190.08 468.066 189.879 468.037 189.69C467.986 189.579 467.956 189.471 467.938 189.365C467.832 189.114 467.689 188.884 467.671 188.663C467.625 188.129 467.899 187.571 467.899 187.571L468.066 187.271C468.092 187.228 468.103 187.179 468.103 187.129V187.08C468.14 186.971 468.175 186.87 468.211 186.761L468.582 186.279L468.876 186.168C468.671 185.744 469.104 182.78 469.398 182.868C469.693 182.958 470.102 182.78 470.102 182.778C470.102 182.778 470.489 183.001 470.967 183.536C471.363 183.98 471.742 184.314 471.991 184.506C471.821 182.13 470.963 179.843 469.507 177.921C466.505 173.962 461.706 167.659 460.225 165.859C458.012 163.174 456.432 156.253 456.432 156.253C456.432 156.253 450.004 176.806 445.685 186.825C444.486 189.606 443.449 191.812 442.347 193.552H455.861L437.344 232.093V224.497H420.333L417.329 257.241L415.472 239.404C414.939 233.681 414.423 228.713 413.92 224.497H397.003V294.613H391.94V276.125C391.94 270.467 391.832 267.009 391.613 265.752C391.395 264.496 390.843 263.117 389.953 261.617C389.062 260.117 387.323 258.917 384.736 258.021C387.593 257.647 389.506 256.521 390.479 254.642C391.452 252.765 391.94 249.097 391.94 243.64C391.94 237.665 391.252 233.311 389.874 230.581C388.497 227.852 386.718 226.158 384.533 225.492C382.348 224.829 378.173 224.495 372.003 224.495H362.749V294.611H349.357C349.644 294.465 349.927 294.307 350.203 294.14C352.336 292.84 354.029 290.977 355.28 288.552C356.531 286.127 357.277 283.449 357.516 280.519C357.753 277.589 357.873 272.601 357.873 265.556V253.559C357.873 246.341 357.748 241.288 357.5 238.4C357.251 235.513 356.474 232.842 355.172 230.387C353.868 227.933 352.145 226.092 350.001 224.865C347.857 223.638 345.442 223.024 342.75 223.024C339.914 223.024 337.43 223.674 335.297 224.973C333.165 226.273 331.472 228.136 330.221 230.561C328.967 232.986 328.222 235.664 327.985 238.594C327.745 241.524 327.628 246.512 327.628 253.557V265.554C327.628 272.772 327.752 277.825 328.001 280.713C328.249 283.6 329.024 286.271 330.329 288.726C331.633 291.18 333.356 293.021 335.5 294.248C335.725 294.377 335.953 294.496 336.183 294.611H319.602L325.422 224.495H312.722C311.034 240.726 309.817 257.329 309.074 274.302L307.629 247.622C306.859 234.254 306.385 226.543 306.203 224.493H292.627C290.699 244.331 289.494 260.372 289.013 272.61L287.676 248.957L286.294 224.491H273.594L279.446 294.607H273.951L265.738 256.151L273.237 224.491H260.972L255.15 251.732V224.491H242.077V294.607H238.91V280.578H230.96V224.491H217.887V294.607H212.64V224.491H199.568V294.607H187.733C188.289 294.334 188.83 294.027 189.352 293.68C191.754 292.078 193.373 290.093 194.213 287.724C195.052 285.358 195.471 281.676 195.471 276.68C195.471 269.808 194.714 264.827 193.205 261.737C191.694 258.646 188.029 254.694 182.21 249.876C180.181 248.202 178.948 246.774 178.515 245.589C178.062 244.405 177.834 242.643 177.834 240.302C177.834 238.481 178.037 237.123 178.439 236.228C178.844 235.332 179.438 234.883 180.224 234.883C180.949 234.883 181.467 235.215 181.777 235.88C182.088 236.546 182.244 238.089 182.244 240.514V245.711H194.385V242.939C194.385 237.367 193.996 233.417 193.221 231.093C192.444 228.77 190.861 226.841 188.471 225.312C186.081 223.782 183.187 223.015 179.792 223.015C178.805 223.015 177.864 223.087 176.97 223.227L190.219 195.652C190.173 195.647 190.118 195.629 190.047 195.584C190.047 195.584 189.591 195.986 189.228 196.065C189.228 196.065 189.104 196.362 188.625 196.712C188.625 196.712 188.322 196.89 188.027 196.868L187.296 197.249C187.296 197.249 186.852 197.678 186.214 196.902C186.214 196.902 186.037 196.586 186.024 196.437C186.01 196.288 185.941 196.281 185.938 196.281C185.938 196.281 185.874 196.475 185.115 194.801C185.115 194.801 185.198 194.745 185.154 194.693C185.154 194.693 185.147 194.65 185.005 194.589L184.423 193.258C184.423 193.258 184.107 192.724 184.611 192.455C184.611 192.455 184.342 191.774 183.686 190.576C183.686 190.576 183.636 190.364 183.627 190.229C183.617 190.093 183.357 189.805 183.357 189.802C183.357 189.802 182.973 189.987 182.805 189.604C182.635 189.22 182.233 188.268 182.244 187.838C182.24 187.838 182.023 187.921 181.851 186.536C181.851 186.536 181.706 185.841 181.885 185.76C181.885 185.76 181.876 185.625 181.759 185.683C181.641 185.742 181.543 183.897 181.543 183.894L181.628 183.583L181.487 183.5C181.487 183.495 181.368 182.146 181.54 181.848C181.54 181.848 181.285 180.538 181.973 180.289C182.66 180.041 183.001 179.895 183.477 180.332C183.477 180.332 184.358 179.662 184.655 180.445C184.671 180.436 185.343 180.109 186.555 180.793C186.555 180.793 186.836 180.959 186.911 181.948L187.07 181.884C187.07 181.884 187.696 182.135 188.057 182.525C188.418 182.915 188.492 183.267 188.492 183.267C188.492 183.267 188.678 183.321 188.795 183.287C188.91 183.254 189.14 183.556 189.106 183.639C189.069 183.723 189.124 184.003 189.051 184.136L189.145 184.192C189.145 184.192 189.237 183.982 189.35 184.03C189.463 184.077 189.35 184.224 189.35 184.226C189.352 184.226 189.497 184.273 189.416 184.42L189.649 184.582C189.651 184.582 190.12 184.294 190.528 184.479C190.528 184.479 190.751 184.704 190.615 185.092L191.317 185.451C191.317 185.451 192.262 185.171 192.782 185.403C192.793 185.394 192.95 185.32 194.489 186.001C194.489 186.001 194.85 185.904 195.002 186.272C195.153 186.64 194.861 186.732 194.861 186.732C194.861 186.732 194.737 186.863 195.103 187.007C195.469 187.152 195.248 187.447 195.248 187.447C195.248 187.447 195.059 187.477 195.264 187.833C195.264 187.833 195.291 187.984 195.229 188.065C195.199 188.104 195.202 188.187 195.213 188.262C196.281 188.492 197.918 188.58 199.575 188.6C199.731 188.458 200.09 188.158 200.467 188.02C200.971 187.838 201.332 187.903 201.332 187.903C201.332 187.903 201.452 187.752 201.463 187.635C201.475 187.517 201.847 187.42 201.912 187.483C201.978 187.549 202.261 187.601 202.36 187.72L202.448 187.657C202.448 187.657 202.284 187.495 202.372 187.411C202.459 187.325 202.556 187.483 202.558 187.486C202.558 187.486 202.657 187.368 202.765 187.497L203.007 187.346C203.007 187.341 202.91 186.809 203.237 186.509C203.237 186.509 203.531 186.392 203.849 186.66L204.451 186.157C204.451 186.152 204.539 185.191 204.953 184.806C204.948 184.792 204.937 184.621 206.156 183.477C206.156 183.477 206.2 183.112 206.604 183.112C207.009 183.112 206.986 183.412 206.986 183.412C206.986 183.412 207.062 183.572 207.336 183.294C207.61 183.015 207.807 183.326 207.807 183.326C207.807 183.326 207.764 183.509 208.18 183.454C208.18 183.454 208.334 183.486 208.387 183.572C208.442 183.657 208.725 183.689 208.725 183.689C208.725 183.689 209.098 183.806 208.955 184.215C208.813 184.623 208.889 184.503 208.944 184.515C208.969 184.519 209.059 184.535 209.172 184.573C209.567 184.156 209.834 183.858 209.834 183.858C213.804 178.083 217.347 174.025 217.347 174.025L219.311 171.598C219.311 171.598 218.842 170.51 218.587 169.883C218.331 169.256 218.757 169.003 218.757 169.003C219.654 168 220.227 168 220.227 168C221.184 168.083 221.405 168 221.405 168C222.985 167.666 224.094 167.666 224.094 167.666C225.715 167.709 227.551 167.289 227.551 167.289C229.771 166.495 233.184 166.452 233.184 166.452L232.885 164.905C232.885 164.905 232.586 162.101 233.27 160.887C233.953 159.673 234.293 157.999 234.293 157.999C234.293 157.999 234.422 157.079 235.745 155.322C237.067 153.564 238.519 154.192 238.519 154.192C241.548 153.355 243.384 157.12 243.343 158.669C243.299 160.217 244.155 162.854 244.155 162.854C244.155 162.854 244.709 165.405 246.673 165.615C248.638 165.825 249.234 170.47 249.234 170.47C249.234 170.47 248.806 178.629 249.574 179.216C250.342 179.802 251.145 185.112 251.571 188.041C251.999 190.969 252.553 192.435 252.553 192.435C253.662 192.478 254.046 192.309 254.603 192.225C255.157 192.142 255.371 192.435 255.371 192.435C255.371 192.435 256.268 192.478 256.993 192.561C257.717 192.645 258.274 193.315 258.4 193.398C258.437 193.423 258.437 193.482 258.4 193.543H267.507V126.343L243.46 90.4143L267.507 70.8652V18.2453L299.341 44.5575L330.952 18.2453V70.9892L355.066 90.4211L330.904 126.515L330.938 193.549H380.508C381.205 192.749 382.182 191.93 383.109 191.16C384.478 190.023 385.552 190.127 385.552 190.127H390.799C393.748 190.127 393.539 188.474 393.539 188.474C393.539 188.474 394.908 176.7 394.698 171.122C394.487 165.545 397.859 159.761 397.859 159.761V156.249C397.859 156.249 397.647 149.019 398.912 148.193C400.178 147.368 399.333 146.851 399.333 146.851C393.327 144.063 395.119 140.758 395.119 140.758C405.655 141.584 399.966 137.453 399.966 137.453C395.752 133.736 395.963 130.327 395.963 130.327C395.963 130.327 396.069 126.918 398.176 126.093C400.283 125.267 397.334 124.956 397.334 124.956C393.753 123.097 396.175 119.585 396.175 119.585C398.11 122.878 402.503 121.64 402.798 121.552C402.745 121.462 402.531 120.51 401.76 112.871C400.812 103.473 410.821 99.7558 410.821 99.7558C423.464 96.1419 430.312 103.061 430.312 103.061C430.312 103.061 433.157 105.849 433.787 109.361C434.42 112.874 429.046 113.803 429.046 113.803C430.838 115.145 429.258 115.766 429.258 115.766C427.363 115.766 428.416 116.695 428.416 116.695C428.416 116.695 430.629 118.657 430.629 119.896C430.629 121.134 427.468 120.722 429.049 121.549C430.629 122.375 429.049 122.892 429.049 122.892C429.681 124.545 428.31 124.338 428.31 124.338L428.416 125.68C428.416 125.68 428.837 126.713 424.835 126.093C420.832 125.472 421.78 130.74 421.78 130.74L425.361 130.844C427.468 131.773 437.371 143.237 440.881 147.715C444.392 152.193 445.484 148.09 445.484 148.09L449.804 136.522L454.545 125.47C454.545 125.47 454.757 123.199 456.126 121.545C457.494 119.891 457.179 121.236 457.179 121.236C454.966 123.819 456.758 124.645 456.758 124.645C456.758 124.645 458.339 126.503 463.185 123.302C466.546 121.083 473.088 118.861 473.088 118.861C473.249 118.617 473.537 118.269 473.912 117.85C473.872 117.832 473.833 117.821 473.801 117.821C473.587 117.827 473.353 117.604 473.353 117.604C472.966 116.837 472.695 117.124 472.695 117.124C472.695 117.124 471.92 117.151 472.094 116.363C472.269 115.578 471.899 115.635 471.897 115.635C471.897 115.635 471.393 116.018 470.926 115.332C470.459 114.647 471.05 114.15 471.05 114.15C471.657 110.762 471.972 110.584 472 110.575C472 110.575 472 110.575 472.002 110.573C472.205 109.424 473.797 108.166 473.801 108.161L473.994 106.559C473.155 106.332 473.021 105.695 473.021 105.695C473.171 104.795 474.222 104.342 474.229 104.34L474.215 103.758C473.866 103.722 473.955 103.424 473.955 103.417C473.948 103.417 473.557 103.435 473.608 103.189C473.659 102.943 474.125 103.034 474.13 103.034L474.142 102.812C473.82 102.781 473.396 102.361 473.208 102.325C473.019 102.289 472.759 101.547 472.955 101.391C473.15 101.236 473.274 100.861 473.274 100.859C473.274 100.859 472.743 100.32 472.483 99.2595C472.223 98.1992 472.515 96.857 472.515 96.8502L472.812 96.6562C471.17 95.3727 471.206 94.7049 471.206 94.7049C471.425 91.8603 472.784 91.1159 472.821 91.0978C471.8 89.6789 473.999 88.9841 474.004 88.9818C473.794 87.6712 474.448 87.2674 475.69 86.4012C476.93 85.5327 478.926 87.4952 478.926 87.4952C479.651 87.5561 481.873 89.3315 481.882 89.3383L481.864 89.6721L482.508 89.8932C482.508 89.8932 485.627 92.219 485.388 92.3498C485.149 92.4807 485.374 92.6521 485.376 92.6521C485.728 92.4468 486.777 93.5026 486.777 93.5026C489.004 95.4133 488.606 95.6817 488.597 95.6885C489.367 96.1757 490.561 97.9669 491.037 98.7023C491.511 99.4354 490.738 99.864 490.736 99.8663C490.736 99.8686 490.938 100.645 491.166 100.818C491.394 100.99 491.702 101.324 491.702 101.324C493.029 103.828 493.908 105.075 493.91 105.08C494.969 104.547 495.539 105.7 495.539 105.702L497.191 108.24C497.129 108.549 497.198 108.61 497.198 108.61C497.234 108.745 497.428 108.673 497.43 108.671C499.475 111.906 499.061 111.791 499.061 111.788C499.061 111.788 498.99 111.915 499.233 112.111C499.477 112.31 499.822 112.973 499.822 112.975C500.436 114.958 499.169 115.204 499.167 115.204L497.639 115.991C497.338 116.51 496.671 116.814 496.668 116.814C495.491 117.212 494.828 117.072 494.826 117.072C494.26 117.593 493.027 117.888 493.025 117.891C493.002 118.653 492.477 118.364 492.47 118.362C492.003 118.721 491.783 118.599 491.783 118.599C491.304 118.136 491.021 118.24 491.019 118.242C489.873 119.449 489.11 119.576 488.592 119.54C488.272 119.517 487.658 119.812 487.237 120.04C486.984 120.178 486.701 120.248 486.411 120.259C485.629 120.288 485.533 121.069 485.158 121.362C484.73 121.696 484.107 121.784 484.104 121.784L483.757 121.813C483.706 121.818 483.658 121.834 483.617 121.863L483.573 121.89C483.46 121.919 483.357 121.949 483.244 121.978L482.63 121.947L482.37 121.768C482.124 122.17 479.37 123.467 479.283 123.176C479.193 122.885 478.816 122.653 478.816 122.65C478.816 122.65 478.791 122.21 478.977 121.525C479.165 120.839 479.232 120.257 479.239 119.984C479.241 119.844 479.205 119.639 479.099 119.454L478.558 119.476L472.764 127.636C472.552 130.837 469.918 136.517 465.177 141.784C460.436 147.052 462.017 147.361 462.017 147.361C467.133 150.199 475.959 176.696 477.406 181.122C477.42 181.12 477.429 181.117 477.429 181.117C478.294 181.228 478.202 180.849 478.202 180.849C478.202 180.849 478.611 180.201 479.179 180.781C479.747 181.361 479.906 181.027 479.906 181.027C479.906 181.027 479.86 180.402 480.702 180.402C481.544 180.402 481.634 181.16 481.634 181.16C484.169 183.538 484.143 183.894 484.136 183.921C484.136 183.921 484.136 183.924 484.136 183.926C484.997 184.729 485.181 186.725 485.181 186.732L486.432 187.779C487.092 187.222 487.704 187.468 487.707 187.468C488.385 188.09 488.185 189.198 488.185 189.207L488.684 189.518C488.91 189.252 489.112 189.491 489.117 189.496C489.119 189.491 489.324 189.162 489.503 189.34C489.685 189.518 489.347 189.85 489.344 189.852L489.526 189.985C489.731 189.739 490.322 189.629 490.458 189.496C490.593 189.362 491.366 189.563 491.389 189.807C491.412 190.053 491.661 190.364 491.663 190.364C491.663 190.364 492.415 190.231 493.46 190.61C494.504 190.989 495.479 191.972 495.484 191.977V192.327C497.485 191.702 498.03 192.103 498.03 192.103C500.319 193.863 500.195 195.386 500.19 195.424C501.962 195.381 501.329 197.558 501.327 197.565C502.555 198.122 502.532 198.88 502.578 200.373C502.624 201.867 499.85 202.401 499.85 202.401V202.415Z" fill="black" stroke="white" stroke-width="2" stroke-miterlimit="10"/>
<path d="M106.382 133.845C106.555 133.851 106.699 133.795 106.816 133.673C107.192 133.277 107.537 132.662 107.85 131.833C108.27 130.698 108.489 129.519 108.51 128.298C108.53 127.077 108.361 125.863 108.007 124.663C107.414 122.849 106.416 121.295 105.016 120.002C104.868 119.864 104.676 119.702 104.441 119.517C104.206 119.333 103.973 119.222 103.743 119.188C103.512 119.155 103.334 119.209 103.208 119.351C103.08 119.492 102.953 119.632 102.822 119.772C102.535 120.074 102.306 120.409 102.138 120.779C101.966 121.148 101.841 121.545 101.756 121.97C101.672 122.396 101.626 122.836 101.615 123.286C101.603 123.739 101.61 124.194 101.635 124.654C101.649 125.039 101.699 125.478 101.786 125.974C101.873 126.469 101.996 126.985 102.149 127.524C102.302 128.062 102.48 128.612 102.681 129.17C102.882 129.729 103.103 130.256 103.343 130.756C103.583 131.256 103.841 131.711 104.112 132.124C104.384 132.538 104.665 132.878 104.955 133.144C105.042 133.225 105.169 133.322 105.334 133.432C105.498 133.545 105.672 133.64 105.852 133.716C106.032 133.795 106.211 133.836 106.384 133.842L106.382 133.845Z" fill="black" stroke="white" stroke-width="2" stroke-miterlimit="10"/>
<path d="M249.769 190.398C249.13 188.057 248.573 187.221 248.447 186.721C248.318 186.219 247.006 181.794 246.622 181.209C246.238 180.623 246.282 178.868 246.238 177.073C246.194 175.275 245.939 176.219 245.939 176.219C246.323 179.001 246.068 179.413 245.939 180.416C245.811 181.418 245.128 182.128 245.385 181.668C245.643 181.209 245.555 179.37 245.514 178.911C245.47 178.451 245.429 178.668 245.429 178.668C245.429 178.668 245.473 178.994 245.429 179.916C245.385 180.835 245.001 181.254 245.001 181.254C245.001 181.254 245.087 180.585 245.087 180.042C245.087 179.499 244.703 179.163 244.873 179.582C245.043 179.999 244.788 181.923 244.744 181.17C244.7 180.418 244.53 180.418 244.53 180.418C243.634 181.923 242.995 184.304 242.995 184.304C242.825 187.228 241.843 188.776 241.204 189.443C240.565 190.112 240.437 190.528 240.437 190.528C239.582 192.423 239.86 192.984 237.743 193.511H250.994C250.785 193.171 250.265 192.213 249.769 190.4V190.398Z" fill="black" stroke="white" stroke-width="2" stroke-miterlimit="10"/>
<path d="M196.151 192.693C196.16 192.367 196.164 192.114 196.22 191.912C196.128 191.907 196.079 191.907 196.079 191.907C196.079 191.907 195.82 191.945 195.422 192.081C195.084 192.276 194.698 192.459 194.581 192.452V192.601H194.583L194.429 192.849C194.385 192.885 194.346 192.916 194.305 192.952L194.282 192.961C194.259 192.97 194.241 192.984 194.224 193.002L194.119 193.128C194.119 193.128 193.914 193.347 193.664 193.423C193.48 193.479 193.211 193.371 192.997 193.504H196.939C196.569 193.358 196.139 193.099 196.151 192.689V192.693Z" fill="black" stroke="white" stroke-width="2" stroke-miterlimit="10"/>
<path d="M212.355 185.858L212.498 185.912L212.675 186.145C212.693 186.196 212.709 186.246 212.728 186.298V186.322C212.728 186.347 212.735 186.37 212.746 186.39L212.827 186.534C212.827 186.534 212.958 186.802 212.937 187.059C212.93 187.131 212.898 187.206 212.861 187.282C213.739 187.001 214.98 186.793 216.47 187.059C216.47 187.059 221.416 186.85 225.597 185.721C225.597 185.721 223.423 181.961 223.209 179.747C223.209 179.747 222.485 177.199 221.63 176.947C221.63 176.947 220.906 179.537 219.327 180.582C217.842 181.567 213.633 184.475 212.381 185.543C212.388 185.692 212.381 185.809 212.358 185.858H212.355Z" fill="black" stroke="white" stroke-width="2" stroke-miterlimit="10"/>
<path d="M223.974 170.846C225.126 171.179 227.643 175.025 227.643 175.025C230.544 178.368 232.206 182.671 232.762 182.587C233.316 182.504 233.87 181.625 233.87 181.625C235.106 180.999 234.467 177.697 234.467 177.697C232.378 176.818 232.847 175.189 233.231 173.811C233.615 172.432 232.677 171.889 231.95 171.011C231.226 170.132 229.008 170.508 229.008 170.508C229.008 170.508 222.823 170.508 223.974 170.842V170.846Z" fill="black" stroke="white" stroke-width="2" stroke-miterlimit="10"/>
<path d="M222.867 193.2C218.304 192.95 216.596 192.238 215.445 192.49C214.997 192.587 214.537 192.659 214.142 192.711C214.148 192.734 214.155 192.754 214.162 192.777C214.162 192.777 214.217 193.119 214.086 193.376L214.1 193.506H226.802C225.446 193.385 224.108 193.268 222.867 193.198V193.2Z" fill="black" stroke="white" stroke-width="2" stroke-miterlimit="10"/>
<path d="M294.846 166.437L275 136.926V193.509H276.641L294.846 166.437Z" fill="black"/>
<path d="M267.528 80.0468L253.5 91.9864L267.528 112.624V80.0468Z" fill="black"/>
<path d="M299.259 173.202L285.27 193.509H313.218L299.259 173.202Z" fill="black"/>
<path d="M330.99 80.0468V112.624L345.018 91.9864L330.99 80.0468Z" fill="black"/>
<path d="M303.787 166.437L321.992 193.509H323.633V136.926L303.787 166.437Z" fill="black"/>
<path d="M323.633 33.415L304.622 49.1369L323.633 64.8386V33.415Z" fill="black"/>
<path d="M274.885 33.415V64.8386L293.896 49.1369L274.885 33.415Z" fill="black"/>
<path d="M323.633 123.75V74.1401L299.337 53.7911L274.885 74.1401V123.554L299.337 159.947L323.633 123.75Z" fill="black"/>
<path d="M462.524 126.764L460.63 128.001C460.63 128.001 459.051 129.033 456.525 128.929L454.945 135.737C454.945 135.737 453.893 139.553 457.789 135.221C461.685 130.889 467.79 123.257 467.79 123.257L462.526 126.764H462.524Z" fill="black"/>
<path d="M435.337 171.175C437.364 166.061 441.258 158.634 441.258 158.634C441.258 158.634 442.117 157.582 440.003 155.685L435.677 151.828C435.677 151.828 434.054 149.163 432.128 158.129C430.202 167.093 430.096 168.744 432.307 173.489C432.307 173.489 433.307 176.293 435.334 171.177L435.337 171.175Z" fill="black"/>
<path d="M415.889 166.886C415.889 155.85 409.258 153.065 409.258 153.065C409.258 153.065 404.309 160.697 401.889 164.41C399.468 168.123 399.362 175.239 399.362 175.239C399.362 175.239 398.942 180.911 398.625 186.172C398.31 191.432 396.099 192.463 396.099 192.463C396.099 192.463 395.106 192.97 393.685 193.509H417.88C416.312 190.959 415.889 188.541 415.889 188.541V166.886Z" fill="black"/>
<path d="M387.148 192.671H384.201C384.201 192.671 383.567 193.058 382.771 193.511H387.125C387.741 193.004 387.15 192.671 387.15 192.671H387.148Z" fill="black"/>
</g>
<defs>
<clipPath id="clip0_79_27">
<rect width="599" height="328" fill="white"/>
</clipPath>
</defs>
</svg>
