<svg width="13" height="23" viewBox="0 0 13 23" fill="none" xmlns="http://www.w3.org/2000/svg">
<path d="M9.81177 5.86035L12.3821 7.93848L12.4192 7.96387L12.5208 8.03516L12.4495 8.1377L9.81177 11.9375V21.9229L9.58423 21.5947L6.34692 16.9297L3.10962 21.5947L2.88208 21.9229V11.9375L0.244385 8.1377L0.173096 8.03516L0.274658 7.96387L0.311768 7.93848L2.88208 5.86035V0.261719L3.08618 0.425781L6.34692 3.06152L9.60767 0.425781L9.81177 0.261719V5.86035ZM3.43286 20.1816L6.00708 16.4414L3.42603 12.7227L3.43286 20.1816ZM6.68579 16.4414L9.26001 20.1816L9.26685 12.7227L6.68579 16.4414ZM3.42017 6.11133L3.42505 11.7061L6.34692 15.9492L9.26782 11.7061L9.27271 6.11133L6.34692 3.73047L3.42017 6.11133ZM0.954346 8.11621L2.88208 10.916V6.54883L0.954346 8.11621ZM9.81177 10.916L11.7385 8.11621L9.81177 6.54883V10.916ZM3.41919 5.42578L5.93384 3.39551L3.41528 1.34766L3.41919 5.42578ZM6.75903 3.39551L9.27368 5.42578L9.27759 1.34766L6.75903 3.39551Z" fill="currentColor" stroke="currentColor" stroke-width="0.25"/>
</svg>
