<svg width="1440" height="120" viewBox="0 0 1440 120" fill="none" xmlns="http://www.w3.org/2000/svg">
<path d="M133.12 94.074H99.61V84.064C94.05 87.958 87.48 90.856 79.9 92.76C72.32 94.664 64.69 95.616 56.99 95.616C41.33 95.616 27.91 92.46 16.74 86.15C5.58 79.84 0 71.038 0 59.744C0 48.45 5.43 39.412 16.3 33.402C27.17 27.392 40.9 24.386 57.51 24.386C72.74 24.386 85.92 27.552 97.05 33.884V0H133.12V94.074ZM36.84 58.524C36.84 65.796 38.85 71.058 42.87 74.31C48.69 79.016 56.82 81.368 67.26 81.368C75.56 81.368 82.62 79.604 88.44 76.074C94.26 72.544 97.17 67.272 97.17 60.256C97.17 52.428 94.35 46.79 88.7 43.346C83.05 39.902 75.82 38.18 67 38.18C58.18 38.18 51.27 39.88 45.5 43.282C39.72 46.684 36.83 51.764 36.83 58.522L36.84 58.524Z" fill="black"/>
<path d="M247.63 72.3862L283.57 75.4022C278.95 81.9902 271.65 87.0062 261.68 90.4502C251.71 93.8942 239.23 95.6162 224.26 95.6162C200.55 95.6162 183.01 91.7442 171.63 84.0022C162.64 77.7982 158.15 69.9702 158.15 60.5162C158.15 49.2222 164.06 40.3762 175.87 33.9822C187.68 27.5882 202.61 24.3882 220.67 24.3882C240.95 24.3882 256.96 27.7362 268.68 34.4302C280.4 41.1262 286.01 51.3822 285.5 65.2002H195.12C195.38 70.5482 198.28 74.7082 203.85 77.6822C209.41 80.6562 216.35 82.1422 224.65 82.1422C230.3 82.1422 235.05 81.3722 238.9 79.8322C242.75 78.2922 245.66 75.8102 247.63 72.3882V72.3862ZM249.69 54.1602C249.43 48.9402 246.74 44.9722 241.6 42.2562C236.47 39.5402 230.22 38.1822 222.86 38.1822C214.98 38.1822 208.48 39.6162 203.35 42.4822C198.22 45.3482 195.69 49.2422 195.78 54.1622H249.7L249.69 54.1602Z" fill="black"/>
<path d="M393.85 72.3862L429.79 75.4022C425.17 81.9902 417.87 87.0062 407.9 90.4502C397.93 93.8942 385.45 95.6162 370.48 95.6162C346.77 95.6162 329.23 91.7442 317.85 84.0022C308.86 77.7982 304.37 69.9702 304.37 60.5162C304.37 49.2222 310.28 40.3762 322.09 33.9822C333.9 27.5882 348.83 24.3882 366.89 24.3882C387.17 24.3882 403.18 27.7362 414.9 34.4302C426.62 41.1262 432.23 51.3822 431.72 65.2002H341.34C341.6 70.5482 344.5 74.7082 350.07 77.6822C355.63 80.6562 362.57 82.1422 370.87 82.1422C376.52 82.1422 381.27 81.3722 385.12 79.8322C388.97 78.2922 391.88 75.8102 393.85 72.3882V72.3862ZM395.9 54.1602C395.64 48.9402 392.95 44.9722 387.81 42.2562C382.68 39.5402 376.43 38.1822 369.07 38.1822C361.19 38.1822 354.69 39.6162 349.56 42.4822C344.43 45.3482 341.9 49.2422 341.99 54.1622H395.91L395.9 54.1602Z" fill="black"/>
<path d="M460.09 25.9262H493.72V35.9362C498.08 32.5142 503.99 29.7322 511.44 27.5942C518.89 25.4542 527.14 24.3862 536.22 24.3862C552.05 24.3862 565.49 27.4882 576.53 33.6902C587.57 39.8942 593.09 48.5342 593.09 59.6162C593.09 70.6982 587.53 79.8402 576.4 86.1502C565.27 92.4602 551.8 95.6162 535.96 95.6162C528.43 95.6162 521.6 94.8682 515.48 93.3702C509.36 91.8722 502.92 89.3062 496.16 85.6702V120.002H460.09V25.9262ZM495.78 58.8442C495.78 66.5022 498.82 72.1602 504.89 75.8182C510.97 79.4762 518.37 81.3042 527.1 81.3042C535.83 81.3042 542.46 79.6242 548.02 76.2662C553.58 72.9082 556.36 67.4002 556.36 59.7422C556.36 52.5982 553.49 47.2922 547.76 43.8282C542.03 40.3622 534.92 38.6302 526.45 38.6302C517.98 38.6302 510.32 40.3302 504.5 43.7322C498.68 47.1342 495.77 52.1702 495.77 58.8442H495.78Z" fill="black"/>
<path d="M621.71 94.074V76.042H657.78V94.074H621.71Z" fill="black"/>
<path d="M729.29 94.0742H693.22V25.9262H726.73V35.6162C732.46 31.0382 737.62 28.0222 742.2 26.5682C746.78 25.1142 751.98 24.3862 757.8 24.3862C766.02 24.3862 773.93 25.5202 781.55 27.7882L770.38 43.5102C764.3 41.5422 758.65 40.5582 753.43 40.5582C748.21 40.5582 744.1 41.2542 740.59 42.6442C737.08 44.0342 734.32 46.5482 732.31 50.1842C730.3 53.8202 729.29 61.4362 729.29 73.0282V94.0762V94.0742Z" fill="black"/>
<path d="M886.828 79.0582V71.1513C881.878 73.9688 875.361 76.1896 867.287 77.8138C859.213 79.4379 850.701 80.25 841.729 80.25C832.757 80.25 824.384 79.4705 817.128 77.913C809.873 76.3554 804.614 74.1672 801.37 71.3497C798.127 68.5322 796.5 64.6361 796.5 59.6645V26.25H832.497V50.5162C832.497 57.9411 833.156 62.4912 834.483 64.165C835.811 65.8387 838.216 67.1653 841.719 68.1432C845.222 69.1211 849.663 69.6109 855.042 69.6109C861.189 69.6109 866.698 68.9569 871.568 67.6473C876.439 66.3378 879.772 64.7136 881.558 62.7749C883.355 60.8361 884.253 56.0861 884.253 48.5279V26.2516H920.25V79.0598H886.808L886.828 79.0582Z" fill="black"/>
<path d="M944.959 74.6322L981.159 71.8722C982.699 75.3802 985.819 78.0442 990.529 79.8622C995.239 81.6802 1001.83 82.5902 1010.3 82.5902C1019.63 82.5902 1026.65 81.7342 1031.35 80.0242C1034.51 78.8262 1036.1 77.2222 1036.1 75.2122C1036.1 73.8442 1035.24 72.7102 1033.53 71.8102C1031.73 70.9542 1027.71 70.1622 1021.46 69.4362C992.359 66.2282 973.919 63.2962 966.129 60.6442C955.349 56.9642 949.949 51.8522 949.949 45.3082C949.949 39.4042 954.609 34.4422 963.939 30.4202C973.269 26.3982 987.729 24.3882 1007.33 24.3882C1026.93 24.3882 1039.85 25.9062 1048.92 28.9442C1057.99 31.9822 1064.24 36.4742 1067.66 42.4202L1033.64 45.5642C1032.18 42.9122 1029.42 40.8802 1025.36 39.4682C1021.29 38.0562 1015.49 37.3502 1007.97 37.3502C998.469 37.3502 991.669 38.0142 987.559 39.3402C984.819 40.2822 983.449 41.5002 983.449 42.9982C983.449 44.2822 984.649 45.3722 987.039 46.2702C990.289 47.4682 1001.52 49.1582 1020.74 51.3402C1039.95 53.5222 1053.37 56.1962 1060.99 59.3622C1068.52 62.5702 1072.29 67.0422 1072.29 72.7742C1072.29 79.0202 1067.07 84.3882 1056.63 88.8802C1046.19 93.3722 1030.74 95.6182 1010.29 95.6182C991.719 95.6182 977.019 93.7362 966.189 89.9702C955.359 86.2062 948.279 81.0922 944.939 74.6342L944.959 74.6322Z" fill="black"/>
<path d="M1091.18 74.6322L1127.38 71.8722C1128.92 75.3802 1132.04 78.0442 1136.75 79.8622C1141.46 81.6802 1148.05 82.5902 1156.52 82.5902C1165.85 82.5902 1172.86 81.7342 1177.57 80.0242C1180.74 78.8262 1182.32 77.2222 1182.32 75.2122C1182.32 73.8442 1181.46 72.7102 1179.75 71.8102C1177.95 70.9542 1173.93 70.1622 1167.68 69.4362C1138.58 66.2282 1120.14 63.2962 1112.35 60.6442C1101.57 56.9642 1096.17 51.8522 1096.17 45.3082C1096.17 39.4042 1100.83 34.4422 1110.16 30.4202C1119.49 26.3982 1133.95 24.3882 1153.55 24.3882C1173.15 24.3882 1186.07 25.9062 1195.14 28.9442C1204.21 31.9822 1210.46 36.4742 1213.88 42.4202L1179.86 45.5642C1178.41 42.9122 1175.65 40.8802 1171.58 39.4682C1167.52 38.0562 1161.72 37.3502 1154.19 37.3502C1144.69 37.3502 1137.89 38.0142 1133.78 39.3402C1131.04 40.2822 1129.67 41.5002 1129.67 42.9982C1129.67 44.2822 1130.87 45.3722 1133.26 46.2702C1136.51 47.4682 1147.74 49.1582 1166.96 51.3402C1186.17 53.5222 1199.59 56.1962 1207.2 59.3622C1214.73 62.5702 1218.5 67.0422 1218.5 72.7742C1218.5 79.0202 1213.28 84.3882 1202.84 88.8802C1192.4 93.3722 1176.95 95.6182 1156.5 95.6182C1137.93 95.6182 1123.23 93.7362 1112.4 89.9702C1101.57 86.2062 1094.49 81.0922 1091.15 74.6342L1091.18 74.6322Z" fill="black"/>
<path d="M1250.1 16.684V0H1286.17V16.684H1250.1ZM1250.1 94.074V25.926H1286.17V94.076H1250.1V94.074Z" fill="black"/>
<path d="M1402.1 72.3862L1438.04 75.4022C1433.42 81.9902 1426.12 87.0062 1416.15 90.4502C1406.18 93.8942 1393.71 95.6162 1378.73 95.6162C1355.02 95.6162 1337.48 91.7442 1326.1 84.0022C1317.11 77.7982 1312.62 69.9702 1312.62 60.5162C1312.62 49.2222 1318.53 40.3762 1330.34 33.9822C1342.15 27.5862 1357.08 24.3882 1375.14 24.3882C1395.42 24.3882 1411.43 27.7362 1423.15 34.4302C1434.87 41.1262 1440.48 51.3822 1439.97 65.2002H1349.59C1349.85 70.5482 1352.76 74.7082 1358.32 77.6822C1363.88 80.6562 1370.82 82.1422 1379.12 82.1422C1384.77 82.1422 1389.52 81.3722 1393.37 79.8322C1397.22 78.2922 1400.13 75.8102 1402.1 72.3882V72.3862ZM1404.15 54.1602C1403.89 48.9402 1401.2 44.9722 1396.06 42.2562C1390.93 39.5402 1384.68 38.1822 1377.32 38.1822C1369.45 38.1822 1362.94 39.6162 1357.81 42.4822C1352.68 45.3482 1350.15 49.2422 1350.24 54.1622H1404.16L1404.15 54.1602Z" fill="black"/>
</svg>
